<svg width="44" height="45" viewBox="0 0 44 45" fill="none" xmlns="http://www.w3.org/2000/svg">
<path d="M43.735 6.00885L37.9991 0.265363C37.8294 0.0954218 37.5989 0 37.3584 0H21.4187C20.9186 0 20.5129 0.406224 20.5129 0.906961V4.31852H17.1059C16.6058 4.31852 16.2002 4.72474 16.2002 5.22548V8.63703H12.7931C12.2931 8.63703 11.8874 9.04326 11.8874 9.54399V20.0059C7.79151 20.2948 4.22293 22.525 2.0974 25.7821C2.06926 25.8248 2.04113 25.8675 2.0139 25.9111C1.97215 25.9756 1.93131 26.0401 1.89229 26.1056C1.08092 27.4324 0.503702 28.9183 0.22054 30.505L0.209649 30.4913C0.0716982 31.242 0 32.0163 0 32.8078C0 32.8951 0.000907572 32.9823 0.00272272 33.0686L0.0281347 33.0995C0.0962026 35.7477 0.960211 38.2623 2.54211 40.3907C4.15759 42.5645 6.37025 44.1439 8.93868 44.9573C9.02943 44.9855 9.1211 44.9991 9.21186 44.9991C9.59667 44.9991 9.95334 44.7519 10.075 44.3657C10.1793 44.0367 10.0858 43.6923 9.86259 43.4614C5.18587 42.1819 1.74889 37.8961 1.74889 32.8078C1.74889 26.7081 6.6879 21.7625 12.7795 21.7625C18.8711 21.7625 23.8102 26.7081 23.8102 32.8078C23.8102 37.8824 20.3913 42.1592 15.7337 43.4514C15.5031 43.6832 15.406 44.0322 15.5113 44.3657C15.662 44.8437 16.1702 45.1081 16.6485 44.9573C19.2169 44.1439 21.4287 42.5645 23.0451 40.3907C23.1694 40.2225 23.2883 40.0517 23.4036 39.8799H34.4687C34.9688 39.8799 35.3744 39.4737 35.3744 38.973V35.5614H38.7815C39.2815 35.5614 39.6872 35.1552 39.6872 34.6536V31.242H43.0942C43.5943 31.242 44 30.8367 44 30.335V6.65044C44 6.40962 43.9047 6.17879 43.735 6.00885ZM33.5629 38.0651H24.4182C24.8893 37.0345 25.2196 35.9467 25.4011 34.8235C25.4084 34.779 25.4156 34.7335 25.422 34.6872C25.5173 34.0556 25.5654 33.4122 25.5654 32.7615C25.5654 26.0147 20.3205 20.4721 13.6989 20.0059V10.451H28.358L33.5629 15.6628V38.0651ZM37.8757 33.7466H35.3744V15.2875C35.3744 15.0466 35.2791 14.8158 35.1094 14.6459L29.3736 8.9024C29.2039 8.73246 28.9733 8.63703 28.7328 8.63703H18.0117V6.13244H32.6708L37.8757 11.3443V33.7466ZM42.1885 29.4281H39.6872V10.969C39.6872 10.7281 39.5919 10.4973 39.4222 10.3274L33.6864 4.58388C33.5166 4.41394 33.2861 4.31852 33.0456 4.31852H22.3254V1.81392H36.9836L42.1885 7.02577V29.4281Z" fill="#FB4300"/>
<path d="M16.948 35.2634C16.5968 34.9053 16.0223 34.9007 15.6647 35.2524L13.7733 37.1136V27.8359C13.7733 27.3343 13.3667 26.9271 12.8657 26.9271C12.3648 26.9271 11.9582 27.3343 11.9582 27.8359V37.1136L10.0668 35.2524C9.7092 34.9007 9.13471 34.9053 8.78348 35.2634C8.43225 35.6214 8.43679 36.1967 8.79437 36.5484L12.2295 39.9281C12.4065 40.1017 12.6361 40.1889 12.8657 40.1889C13.0954 40.1889 13.325 40.1017 13.5019 39.9281L16.9371 36.5484C17.2938 36.1967 17.2992 35.6214 16.948 35.2634Z" fill="#FB4300"/>
</svg>
