<svg width="44" height="44" viewBox="0 0 44 44" fill="none" xmlns="http://www.w3.org/2000/svg">
<path d="M23.4375 9.0625H30.625C30.8156 9.0625 30.9984 8.98677 31.1332 8.85198C31.268 8.71719 31.3438 8.53437 31.3438 8.34375C31.3413 6.24764 30.5075 4.23809 29.0253 2.75592C27.5432 1.27374 25.5336 0.439973 23.4375 0.4375C23.2469 0.4375 23.0641 0.513225 22.9293 0.648017C22.7945 0.782809 22.7188 0.965626 22.7188 1.15625V8.34375C22.7188 8.53437 22.7945 8.71719 22.9293 8.85198C23.0641 8.98677 23.2469 9.0625 23.4375 9.0625ZM24.1562 1.91453C25.6137 2.07999 26.972 2.73481 28.0092 3.77202C29.0464 4.80923 29.7013 6.16752 29.8667 7.625H24.1562V1.91453Z" fill="#FB4300"/>
<path d="M34.5163 1.875H39.25V0.4375H34.2187C34.0281 0.437541 33.8453 0.513293 33.7106 0.648094L31.5543 2.80434L32.5707 3.82066L34.5163 1.875Z" fill="#FB4300"/>
<path d="M40.6875 0.4375H43.5625V1.875H40.6875V0.4375Z" fill="#FB4300"/>
<path d="M11.4293 3.82066L12.4457 2.80434L10.2894 0.648094C10.1546 0.513293 9.97186 0.437541 9.78125 0.4375H4.75V1.875H9.48369L11.4293 3.82066Z" fill="#FB4300"/>
<path d="M0.4375 0.4375H3.3125V1.875H0.4375V0.4375Z" fill="#FB4300"/>
<path d="M34.9375 4.75H40.6875V6.1875H34.9375V4.75Z" fill="#FB4300"/>
<path d="M42.125 4.75H43.5625V6.1875H42.125V4.75Z" fill="#FB4300"/>
<path d="M0.4375 4.75H9.0625V6.1875H0.4375V4.75Z" fill="#FB4300"/>
<path d="M17.3899 24.875H12.6562V26.3125H17.6875C17.8781 26.3124 18.0609 26.2367 18.1957 26.1019L20.3519 23.9456L19.3356 22.9293L17.3899 24.875Z" fill="#FB4300"/>
<path d="M8.34375 24.875H11.2188V26.3125H8.34375V24.875Z" fill="#FB4300"/>
<path d="M8.34375 20.5625H16.9688V22H8.34375V20.5625Z" fill="#FB4300"/>
<path d="M43.5625 19.8438C43.5643 18.0784 43.0655 16.3486 42.1239 14.8553C41.1822 13.362 39.8364 12.1663 38.2427 11.4071C36.6489 10.6478 34.8725 10.3561 33.1196 10.5657C31.3666 10.7754 29.7091 11.4778 28.3394 12.5916C28.4226 12.1386 28.4659 11.6793 28.4687 11.2188C28.4687 11.0281 28.393 10.8453 28.2582 10.7105C28.1234 10.5757 27.9406 10.5 27.75 10.5H21.2812V4.03125C21.2812 3.84063 21.2055 3.65781 21.0707 3.52302C20.9359 3.38823 20.7531 3.3125 20.5625 3.3125C18.8435 3.31583 17.1723 3.87875 15.8017 4.91615C14.431 5.95356 13.4354 7.40903 12.9653 9.0625H9.0625C8.10938 9.0625 7.19529 9.44113 6.52133 10.1151C5.84738 10.789 5.46875 11.7031 5.46875 12.6562V31.3438C5.46875 32.2969 5.84738 33.211 6.52133 33.8849C7.19529 34.5589 8.10938 34.9375 9.0625 34.9375H19.125V39.25H16.9687C16.3974 39.2517 15.8499 39.4794 15.4459 39.8834C15.0419 40.2874 14.8142 40.8349 14.8125 41.4062V42.8438C14.8125 43.0344 14.8882 43.2172 15.023 43.352C15.1578 43.4868 15.3406 43.5625 15.5312 43.5625H28.4687C28.6594 43.5625 28.8422 43.4868 28.977 43.352C29.1118 43.2172 29.1875 43.0344 29.1875 42.8438V41.4062C29.1858 40.8349 28.9581 40.2874 28.5541 39.8834C28.1501 39.4794 27.6026 39.2517 27.0312 39.25H24.875V34.9375H30.625V39.9688C30.625 40.9219 31.0036 41.836 31.6776 42.5099C32.3515 43.1839 33.2656 43.5625 34.2187 43.5625C35.1719 43.5625 36.086 43.1839 36.7599 42.5099C37.4339 41.836 37.8125 40.9219 37.8125 39.9688V31.3438C37.8125 31.1531 37.7368 30.9703 37.602 30.8355C37.4672 30.7007 37.2844 30.625 37.0937 30.625H36.375V28.9287C38.4188 28.4408 40.239 27.2794 41.5427 25.6315C42.8464 23.9836 43.5578 21.945 43.5625 19.8438ZM19.8437 4.79313V11.2188C19.8437 11.4094 19.9195 11.5922 20.0543 11.727C20.1891 11.8618 20.3719 11.9375 20.5625 11.9375H26.9881C26.8534 13.1484 26.3794 14.2967 25.6207 15.2501C24.8621 16.2035 23.8496 16.9232 22.6998 17.3265C21.55 17.7297 20.3098 17.8 19.1218 17.5293C17.9339 17.2586 16.8465 16.6579 15.9849 15.7963C15.1234 14.9348 14.5227 13.8474 14.252 12.6594C13.9813 11.4715 14.0516 10.2312 14.4548 9.08145C14.858 7.93169 15.5778 6.91918 16.5311 6.16051C17.4845 5.40184 18.6328 4.92785 19.8437 4.79313ZM27.0312 40.6875C27.2219 40.6875 27.4047 40.7632 27.5395 40.898C27.6743 41.0328 27.75 41.2156 27.75 41.4062V42.125H16.25V41.4062C16.25 41.2156 16.3257 41.0328 16.4605 40.898C16.5953 40.7632 16.7781 40.6875 16.9687 40.6875H27.0312ZM20.5625 39.25V34.9375H23.4375V39.25H20.5625ZM31.3437 30.625C31.1531 30.625 30.9703 30.7007 30.8355 30.8355C30.7007 30.9703 30.625 31.1531 30.625 31.3438V33.5H9.0625C8.49115 33.4983 7.94369 33.2706 7.53969 32.8666C7.13568 32.4626 6.90796 31.9151 6.90625 31.3438V30.625H29.1875V29.1875H6.90625V12.6562C6.90796 12.0849 7.13568 11.5374 7.53969 11.1334C7.94369 10.7294 8.49115 10.5017 9.0625 10.5H12.6922C12.6706 10.7372 12.6562 10.9744 12.6562 11.2188C12.6549 12.6709 13.0538 14.0953 13.8093 15.3355C14.5648 16.5756 15.6475 17.5835 16.9386 18.2483C18.2296 18.9132 19.6789 19.2092 21.1272 19.1039C22.5756 18.9986 23.9668 18.4961 25.1481 17.6516C24.9694 18.3687 24.8777 19.1047 24.875 19.8438C24.8797 21.945 25.5911 23.9836 26.8948 25.6315C28.1985 27.2794 30.0187 28.4408 32.0625 28.9287V30.625H31.3437ZM36.375 39.9688C36.375 40.5406 36.1478 41.0891 35.7434 41.4934C35.3391 41.8978 34.7906 42.125 34.2187 42.125C33.6469 42.125 33.0984 41.8978 32.694 41.4934C32.2897 41.0891 32.0625 40.5406 32.0625 39.9688V32.0625H36.375V39.9688ZM33.5 30.625V29.1516C33.7372 29.1659 33.9744 29.1875 34.2187 29.1875C34.4631 29.1875 34.7003 29.1659 34.9375 29.1516V30.625H33.5ZM34.2187 27.75C32.655 27.75 31.1264 27.2863 29.8263 26.4176C28.5261 25.5488 27.5127 24.314 26.9143 22.8693C26.3159 21.4247 26.1593 19.835 26.4644 18.3013C26.7695 16.7677 27.5225 15.3589 28.6282 14.2532C29.7339 13.1475 31.1427 12.3945 32.6763 12.0894C34.21 11.7844 35.7997 11.9409 37.2443 12.5393C38.689 13.1377 39.9238 14.1511 40.7926 15.4513C41.6613 16.7514 42.125 18.28 42.125 19.8438C42.1237 21.9402 41.2903 23.9504 39.8078 25.4328C38.3254 26.9153 36.3152 27.7487 34.2187 27.75Z" fill="#FB4300"/>
<path d="M34.2188 13.375C32.9394 13.375 31.6887 13.7544 30.6249 14.4652C29.5611 15.176 28.732 16.1863 28.2424 17.3683C27.7528 18.5503 27.6247 19.8509 27.8743 21.1057C28.1239 22.3606 28.74 23.5132 29.6447 24.4178C30.5493 25.3225 31.7019 25.9386 32.9568 26.1882C34.2116 26.4378 35.5122 26.3097 36.6942 25.8201C37.8762 25.3305 38.8865 24.5014 39.5973 23.4376C40.3081 22.3738 40.6875 21.1231 40.6875 19.8437C40.6854 18.1288 40.0032 16.4846 38.7905 15.272C37.5779 14.0593 35.9337 13.3771 34.2188 13.375ZM34.2188 24.875C33.2237 24.875 32.2509 24.5799 31.4235 24.0271C30.5962 23.4742 29.9513 22.6885 29.5705 21.7691C29.1897 20.8498 29.09 19.8382 29.2842 18.8622C29.4783 17.8862 29.9575 16.9898 30.6611 16.2861C31.3648 15.5825 32.2612 15.1033 33.2372 14.9092C34.2132 14.715 35.2248 14.8147 36.1441 15.1955C37.0635 15.5763 37.8492 16.2212 38.4021 17.0485C38.9549 17.8759 39.25 18.8487 39.25 19.8437C39.2485 21.1777 38.7179 22.4565 37.7747 23.3997C36.8315 24.3429 35.5527 24.8735 34.2188 24.875Z" fill="#FB4300"/>
<path d="M30.625 19.8438H32.0625C32.0625 19.2719 32.2897 18.7234 32.6941 18.3191C33.0984 17.9147 33.6469 17.6875 34.2188 17.6875V16.25C33.266 16.2511 32.3526 16.6301 31.6788 17.3038C31.0051 17.9776 30.6261 18.891 30.625 19.8438Z" fill="#FB4300"/>
<path d="M33.5 33.5H34.9375V34.9375H33.5V33.5Z" fill="#FB4300"/>
<path d="M33.5 36.375H34.9375V40.6875H33.5V36.375Z" fill="#FB4300"/>
</svg>
