<svg width="40" height="40" viewBox="0 0 40 40" fill="none" xmlns="http://www.w3.org/2000/svg">
<path d="M19.9912 9.5C23.7705 9.49909 27.4824 10.5012 30.7477 12.4039C33.8056 14.194 36.3796 16.7043 38.2459 19.7163C37.2432 21.3348 36.0325 22.8147 34.6447 24.1182L35.5433 25.0749C37.1164 23.5974 38.4745 21.9065 39.5778 20.0518C39.6382 19.9503 39.6701 19.8344 39.6701 19.7163C39.6701 19.5982 39.6382 19.4822 39.5778 19.3807C37.5844 16.0304 34.7741 13.24 31.4097 11.2704C27.9434 9.25044 24.0031 8.1866 19.9912 8.1875C19.3186 8.1875 18.6397 8.21736 17.9733 8.27626L18.0887 9.58367C18.717 9.52814 19.357 9.5 19.9912 9.5Z" fill="#FB4300"/>
<path d="M19.9912 29.9332C16.2119 29.9341 12.5001 28.932 9.23473 27.0292C6.17687 25.2391 3.60279 22.7289 1.7365 19.7169C2.59979 18.3241 3.61736 17.033 4.76994 15.8682L3.83716 14.9446C2.51713 16.2785 1.36452 17.7683 0.404809 19.3811C0.344431 19.4826 0.312561 19.5985 0.312561 19.7166C0.312561 19.8347 0.344431 19.9506 0.404809 20.0521C2.39834 23.4024 5.20862 26.1926 8.57307 28.1621C12.0392 30.1823 15.9794 31.2464 19.9912 31.2457C20.6696 31.2457 21.3545 31.2152 22.027 31.1554L21.9105 29.8482C21.2766 29.9045 20.6308 29.9332 19.9912 29.9332Z" fill="#FB4300"/>
<path d="M19.9882 11.8416C21.4272 11.8418 22.8386 12.2363 24.0693 12.9821C25.2999 13.7279 26.3027 14.7966 26.9687 16.0722C27.6348 17.3478 27.9386 18.7814 27.8473 20.2175C27.756 21.6536 27.273 23.0372 26.4508 24.2182L27.527 24.9695C28.4866 23.5918 29.0503 21.9775 29.1571 20.302C29.2638 18.6265 28.9095 16.9537 28.1325 15.4654C27.3555 13.9771 26.1856 12.7301 24.7498 11.8598C23.314 10.9896 21.6672 10.5293 19.9883 10.5291C19.279 10.5289 18.5721 10.6104 17.8814 10.7719L18.1813 12.0498C18.7736 11.9112 19.3799 11.8413 19.9882 11.8416Z" fill="#FB4300"/>
<path d="M19.9882 27.5916C18.6019 27.5912 17.2403 27.2251 16.0408 26.53C14.8414 25.835 13.8466 24.8357 13.157 23.6332C12.4673 22.4306 12.1073 21.0674 12.1131 19.6811C12.119 18.2949 12.4906 16.9347 13.1904 15.7381L12.0584 15.0736C11.1504 16.6277 10.7185 18.4141 10.8164 20.2113C10.9143 22.0086 11.5377 23.7375 12.6091 25.1838C13.6806 26.63 15.1531 27.7299 16.8439 28.347C18.5347 28.9641 20.3694 29.0712 22.1206 28.6552L21.8171 27.3783C21.2178 27.5203 20.604 27.5919 19.9882 27.5916Z" fill="#FB4300"/>
<path d="M23.9375 25.25V21.8047C23.9371 21.2255 23.7754 20.6578 23.4707 20.1652C23.1659 19.6726 22.7301 19.2746 22.212 19.0156C22.4813 18.631 22.6255 18.1727 22.625 17.7031V16.3906C22.6243 15.7817 22.3821 15.1979 21.9515 14.7673C21.5209 14.3367 20.9371 14.0944 20.3281 14.0938H19.6719C19.0629 14.0944 18.4791 14.3367 18.0485 14.7673C17.6179 15.1979 17.3757 15.7817 17.375 16.3906V17.7031C17.3745 18.1727 17.5187 18.631 17.788 19.0156C17.2699 19.2746 16.8341 19.6726 16.5293 20.1652C16.2246 20.6578 16.0629 21.2255 16.0625 21.8047V25.25H17.375V21.8047C17.3755 21.3262 17.5659 20.8675 17.9042 20.5292C18.2425 20.1909 18.7012 20.0005 19.1797 20H20.8203C21.2988 20.0005 21.7575 20.1909 22.0958 20.5292C22.4341 20.8675 22.6245 21.3262 22.625 21.8047V25.25H23.9375ZM19.6719 18.6875C19.4109 18.6872 19.1607 18.5834 18.9761 18.3989C18.7916 18.2143 18.6878 17.9641 18.6875 17.7031V16.3906C18.6878 16.1296 18.7916 15.8794 18.9761 15.6949C19.1607 15.5103 19.4109 15.4065 19.6719 15.4062H20.3281C20.5891 15.4065 20.8393 15.5103 21.0239 15.6949C21.2084 15.8794 21.3122 16.1296 21.3125 16.3906V17.7031C21.3122 17.9641 21.2084 18.2143 21.0239 18.3989C20.8393 18.5834 20.5891 18.6872 20.3281 18.6875H19.6719Z" fill="#FB4300"/>
<path d="M39.6875 31.1562V27.3828C39.687 26.9913 39.5313 26.616 39.2545 26.3392C38.9777 26.0624 38.6024 25.9067 38.2109 25.9062H34.1094L32.3375 23.5438C32.2764 23.4622 32.1971 23.3961 32.106 23.3505C32.0149 23.305 31.9144 23.2812 31.8125 23.2812C31.7106 23.2812 31.6101 23.305 31.519 23.3505C31.4279 23.3961 31.3486 23.4622 31.2875 23.5438L29.5156 25.9062H24.7578C24.3663 25.9067 23.991 26.0624 23.7142 26.3392C23.4374 26.616 23.2817 26.9913 23.2812 27.3828V38.2109C23.2817 38.6024 23.4374 38.9777 23.7142 39.2545C23.991 39.5313 24.3663 39.687 24.7578 39.6875H38.2109C38.6024 39.687 38.9777 39.5313 39.2545 39.2545C39.5313 38.9777 39.687 38.6024 39.6875 38.2109V32.4688H38.375V38.2109C38.375 38.2544 38.3577 38.2962 38.3269 38.3269C38.2962 38.3577 38.2544 38.375 38.2109 38.375H24.7578C24.7143 38.375 24.6726 38.3577 24.6418 38.3269C24.611 38.2962 24.5938 38.2544 24.5938 38.2109V27.3828C24.5938 27.3393 24.611 27.2976 24.6418 27.2668C24.6726 27.236 24.7143 27.2188 24.7578 27.2188H29.8438C29.9456 27.2188 30.0461 27.195 30.1372 27.1495C30.2284 27.1039 30.3076 27.0378 30.3687 26.9562L31.8125 25.0312L33.2563 26.9562C33.3174 27.0378 33.3966 27.1039 33.4878 27.1495C33.5789 27.195 33.6794 27.2188 33.7812 27.2188H38.2109C38.2544 27.2188 38.2962 27.236 38.3269 27.2668C38.3577 27.2976 38.375 27.3393 38.375 27.3828V31.1562H39.6875Z" fill="#FB4300"/>
<path d="M1.78906 14.0938H6.54688L8.31875 16.4563C8.37988 16.5378 8.45914 16.6039 8.55027 16.6495C8.64139 16.695 8.74187 16.7188 8.84375 16.7188C8.94563 16.7188 9.04611 16.695 9.13723 16.6495C9.22836 16.6039 9.30762 16.5378 9.36875 16.4563L11.1406 14.0938H15.2422C15.6337 14.0933 16.009 13.9376 16.2858 13.6608C16.5626 13.384 16.7183 13.0087 16.7188 12.6172V1.78906C16.7183 1.39759 16.5626 1.02229 16.2858 0.745479C16.009 0.468668 15.6337 0.312956 15.2422 0.3125H1.78906C1.39759 0.312956 1.02229 0.468668 0.745479 0.745479C0.468668 1.02229 0.312956 1.39759 0.3125 1.78906V2.9375H1.625V1.78906C1.625 1.74555 1.64228 1.70382 1.67305 1.67305C1.70382 1.64228 1.74555 1.625 1.78906 1.625H15.2422C15.2857 1.625 15.3274 1.64228 15.3582 1.67305C15.389 1.70382 15.4062 1.74555 15.4062 1.78906V12.6172C15.4062 12.6607 15.389 12.7024 15.3582 12.7332C15.3274 12.764 15.2857 12.7812 15.2422 12.7812H10.8125C10.7106 12.7812 10.6101 12.805 10.519 12.8505C10.4279 12.8961 10.3486 12.9622 10.2875 13.0437L8.84375 14.9688L7.4 13.0437C7.33887 12.9622 7.25961 12.8961 7.16848 12.8505C7.07736 12.805 6.97688 12.7812 6.875 12.7812H1.78906C1.74555 12.7812 1.70382 12.764 1.67305 12.7332C1.64228 12.7024 1.625 12.6607 1.625 12.6172V4.25H0.3125V12.6172C0.312956 13.0087 0.468668 13.384 0.745479 13.6608C1.02229 13.9376 1.39759 14.0933 1.78906 14.0938Z" fill="#FB4300"/>
<path d="M8.84375 12.125C8.93251 12.125 9.02034 12.107 9.10193 12.0721C9.18353 12.0371 9.25719 11.986 9.31847 11.9218C9.67284 11.5508 12.7812 8.23557 12.7812 6.21875C12.7812 5.17446 12.3664 4.17294 11.628 3.43452C10.8896 2.69609 9.88804 2.28125 8.84375 2.28125C7.79946 2.28125 6.79794 2.69609 6.05952 3.43452C5.32109 4.17294 4.90625 5.17446 4.90625 6.21875C4.90625 8.23557 8.01466 11.5508 8.36904 11.9218C8.43031 11.986 8.50397 12.0371 8.58557 12.0721C8.66716 12.107 8.75499 12.125 8.84375 12.125ZM8.84375 3.59375C9.5397 3.59453 10.2069 3.87134 10.699 4.36346C11.1912 4.85557 11.468 5.5228 11.4688 6.21875C11.4688 7.20542 10.0109 9.17877 8.84375 10.4981C7.67645 9.17959 6.21875 7.20698 6.21875 6.21875C6.21953 5.5228 6.49634 4.85557 6.98846 4.36346C7.48057 3.87134 8.1478 3.59453 8.84375 3.59375Z" fill="#FB4300"/>
<path d="M9.5 5.5625H8.1875V6.875H9.5V5.5625Z" fill="#FB4300"/>
<path d="M29.9373 28.1936L28.1596 31.1562H25.9062V32.4687H26.7064L27.8946 37.2216C27.9301 37.3636 28.012 37.4897 28.1274 37.5797C28.2427 37.6698 28.3849 37.7187 28.5312 37.7187H34.4375C34.5839 37.7187 34.726 37.6698 34.8414 37.5797C34.9567 37.4897 35.0387 37.3636 35.0741 37.2216L36.2624 32.4687H37.0625V31.1562H34.8091L33.0315 28.1936L31.906 28.8689L33.2784 31.1562H29.6904L31.0627 28.8689L29.9373 28.1936ZM33.9251 36.4062H29.0436L28.0592 32.4687H34.9095L33.9251 36.4062Z" fill="#FB4300"/>
<path d="M33.125 33.7812H29.8438V35.0938H33.125V33.7812Z" fill="#FB4300"/>
</svg>
