<svg width="75" height="32" viewBox="0 0 75 32" fill="none" xmlns="http://www.w3.org/2000/svg">
<path d="M63.3592 18.921H56.4329V21.6915H63.3592V18.921Z" fill="#0085D0"/>
<path d="M44.0525 11.3285C41.1323 11.3285 38.7516 13.6809 38.7516 16.5921C38.7516 19.5032 41.1323 21.8595 44.0525 21.8595C46.9843 21.8595 49.3612 19.4993 49.3612 16.5921C49.3573 13.6809 46.9843 11.3285 44.0525 11.3285ZM44.0525 20.4528C41.9038 20.4528 40.1722 18.7256 40.1722 16.5881C40.1722 14.4546 41.9038 12.7274 44.0525 12.7274C46.2011 12.7274 47.9485 14.4546 47.9485 16.5881C47.9485 18.7256 46.2011 20.4528 44.0525 20.4528Z" fill="#0085D0"/>
<path d="M46.0005 16.5921C46.0005 17.6588 45.1268 18.5224 44.0485 18.5224C42.982 18.5224 42.1123 17.6627 42.1123 16.5921C42.1123 15.5292 42.982 14.6578 44.0485 14.6578C45.1268 14.6578 46.0005 15.5253 46.0005 16.5921Z" fill="#0085D0"/>
<path d="M28.8068 11.4926H25.084V21.6915H28.8068V11.4926Z" fill="#0085D0"/>
<path d="M39.8928 11.4926L35.918 21.6915H32.7579L28.7792 11.4926H32.6752L34.336 16.8539L36.0007 11.4926H39.8928Z" fill="#0085D0"/>
<path d="M25.2926 11.4926L21.3218 21.6915H18.1577L14.1791 11.4926H18.0751L19.7397 16.8539L21.4044 11.4926H25.2926Z" fill="#0085D0"/>
<path d="M63.3592 15.2048H56.4329V17.9753H63.3592V15.2048Z" fill="#0085D0"/>
<path d="M63.3592 11.4926H49.0347V14.2631H51.0338V21.6993H54.6426V14.2631H63.3592V11.4926Z" fill="#0085D0"/>
<path d="M64.4138 21.6915V11.4926H68.0502V15.8418L70.3877 11.4926H74.5632L71.4621 16.5139L75 21.6915H70.5333L68.0502 17.4244V21.6915H64.4138Z" fill="#0085D0"/>
<path d="M6.46579 4.76756C6.49333 4.76366 6.50515 4.80663 6.50515 4.834C6.50515 4.86526 6.51695 4.88089 6.52088 4.89652C6.52482 4.91215 6.5445 4.95904 6.56811 4.97077C6.59173 4.97858 6.64287 4.9864 6.65074 4.99811C6.66257 5.01374 6.67831 5.0411 6.67831 5.06455C6.67831 5.08799 6.68224 5.15833 6.68224 5.15833C6.68224 5.15833 6.70978 5.15833 6.70978 5.18177C6.70978 5.20132 6.71373 5.28337 6.71765 5.30292C6.72945 5.31855 6.74127 5.299 6.75702 5.31463C6.77669 5.32636 6.78456 5.35762 6.80423 5.36544C6.8239 5.37715 6.8239 5.43185 6.85539 5.42404C6.88294 5.41622 6.90656 5.43185 6.9223 5.44359C6.94197 5.45922 6.96952 5.46703 6.96952 5.48266C6.96952 5.49829 6.95772 5.53347 6.97739 5.55691C6.99314 5.57644 7.03248 5.58817 7.04035 5.58817C7.04822 5.58817 7.06397 5.57254 7.07577 5.58817C7.08759 5.59988 7.10331 5.64288 7.10331 5.68585C7.10726 5.72884 7.09544 5.75618 7.11906 5.76792C7.13873 5.77965 7.15447 5.77965 7.15842 5.79918C7.16235 5.82262 7.18989 5.85388 7.22138 5.86562C7.24893 5.88125 7.28434 5.87343 7.29221 5.89688C7.30401 5.9164 7.29221 5.93595 7.30796 5.9594C7.31976 5.98284 7.367 6.01018 7.39454 6.04536C7.41816 6.07662 7.42601 6.10006 7.42996 6.11961C7.43388 6.13914 7.42996 6.1665 7.44963 6.18603C7.47324 6.20558 7.52833 6.18995 7.548 6.20166C7.57162 6.20947 7.61099 6.26028 7.61099 6.27591C7.61099 6.29544 7.63066 6.30717 7.63066 6.35014C7.62673 6.39314 7.61491 6.42832 7.62673 6.44784C7.63853 6.46347 7.67395 6.51428 7.69362 6.50646C7.71329 6.49473 7.74085 6.47129 7.76053 6.4791C7.78414 6.48692 7.81169 6.55725 7.82349 6.5807C7.83531 6.60806 7.82743 6.64713 7.8471 6.67058C7.86678 6.69792 7.87465 6.74091 7.89827 6.74873C7.92581 6.75654 7.94548 6.7331 7.96123 6.78391C7.98485 6.8308 8.03206 6.87769 8.05173 6.90895C8.07142 6.93629 8.11864 6.94021 8.12259 6.96365C8.12259 6.9871 8.11864 7.03009 8.14226 7.03009C8.1698 7.03009 8.20129 7.0379 8.22096 7.06135C8.24063 7.08869 8.24064 7.15121 8.26425 7.17465C8.28393 7.1981 8.32721 7.18247 8.32721 7.21765C8.33114 7.25281 8.32721 7.28406 8.34688 7.30361C8.36658 7.32316 8.40199 7.31532 8.41772 7.34661C8.43741 7.37787 8.46888 7.38568 8.47675 7.42476C8.48463 7.45991 8.48463 7.47554 8.51612 7.50291C8.54759 7.53025 8.57515 7.53025 8.59088 7.55761C8.61057 7.58106 8.62237 7.64358 8.65386 7.65139C8.68533 7.65921 8.72862 7.66312 8.76798 7.67875C8.81127 7.69046 8.82307 7.7061 8.85061 7.71783C8.87816 7.72564 8.90572 7.77643 8.90572 7.79987C8.90572 7.82332 8.90178 7.84287 8.91752 7.85458C8.93327 7.87021 8.96868 7.9171 8.97656 7.94054C8.98835 7.96401 9.0159 7.99917 9.02772 7.99917C9.03952 7.99917 9.09068 8.0109 9.09068 7.99527C9.0946 7.97964 9.11035 7.97183 9.1261 7.97572C9.13789 7.97964 9.16151 8.01872 9.16151 8.03435C9.16151 8.04606 9.16151 8.09687 9.18118 8.10468C9.19693 8.11639 9.23235 8.15157 9.25202 8.14765C9.26776 8.13984 9.31892 8.15157 9.34647 8.1672C9.37009 8.17891 9.43699 8.23753 9.43699 8.26488C9.43699 8.29224 9.45272 8.30787 9.46454 8.3196C9.48028 8.33523 9.48814 8.34694 9.48028 8.36649C9.46846 8.38212 9.46059 8.40165 9.46846 8.4212C9.48028 8.44464 9.50388 8.46809 9.51963 8.4798C9.53537 8.49153 9.57079 8.49543 9.57471 8.50716C9.57866 8.51887 9.59046 8.54232 9.61013 8.5775C9.63375 8.61268 9.67311 8.63612 9.67704 8.65956C9.67704 8.68301 9.68491 8.71817 9.70066 8.72598C9.7164 8.7338 9.74787 8.7299 9.74787 8.75724C9.75182 8.78069 9.74395 8.84712 9.76362 8.87057C9.78724 8.89791 9.80298 8.91354 9.82265 8.90964C9.84232 8.90183 9.86199 8.89401 9.87382 8.90575C9.89349 8.91746 9.9171 8.94872 9.9407 8.94872C9.96827 8.94872 9.98794 8.94872 10.0116 8.96827C10.0352 8.9839 10.0745 9.0425 10.0903 9.05423C10.1099 9.06986 10.1414 9.11675 10.1808 9.11675C10.2201 9.11283 10.2437 9.0972 10.2595 9.08549C10.2752 9.07376 10.3067 9.03079 10.3264 9.03079C10.35 9.02687 10.3736 9.03468 10.3815 9.02297C10.3933 9.01124 10.4011 8.97608 10.4326 8.97216C10.4641 8.96435 10.4877 8.97216 10.4917 8.94872C10.4995 8.92527 10.4917 8.89401 10.5113 8.8862C10.531 8.87838 10.5428 8.84712 10.5586 8.84321C10.5743 8.83931 10.6137 8.81976 10.6176 8.80805C10.6176 8.79632 10.6255 8.76506 10.6491 8.75724C10.6687 8.74553 10.7081 8.72598 10.7199 8.70645C10.7357 8.68301 10.7357 8.65956 10.7632 8.64393C10.7868 8.6283 10.834 8.62439 10.8459 8.60094C10.8577 8.5775 10.8773 8.55013 10.9049 8.53061C10.9324 8.51498 10.9678 8.48761 10.9757 8.4759C10.9836 8.46417 10.9836 8.43291 11.0072 8.4212C11.0308 8.40946 11.0544 8.38602 11.0702 8.37039C11.0859 8.35086 11.0898 8.31179 11.1134 8.29616C11.1292 8.28053 11.1567 8.28834 11.1646 8.28053C11.1725 8.27271 11.1725 8.24535 11.1882 8.23362C11.2079 8.21799 11.2473 8.24143 11.2551 8.2219C11.263 8.20236 11.2591 8.18283 11.2748 8.17501C11.2905 8.1672 11.3102 8.18673 11.326 8.1711C11.3417 8.15547 11.3535 8.14765 11.3574 8.12813C11.3614 8.10858 11.3653 8.08513 11.3771 8.0695C11.3889 8.05387 11.4165 8.05387 11.4165 8.03435C11.4165 8.0148 11.4165 7.97964 11.448 7.9718C11.4794 7.96399 11.4952 7.97183 11.5109 7.96401C11.5227 7.9562 11.5148 7.94836 11.5306 7.93665C11.5503 7.92491 11.57 7.94836 11.566 7.92491C11.5621 7.90147 11.5345 7.87802 11.5542 7.86239C11.5739 7.85068 11.5818 7.88584 11.5975 7.88194C11.6172 7.88194 11.625 7.88194 11.629 7.8585C11.6329 7.83505 11.629 7.80769 11.6408 7.79598C11.6526 7.78035 11.6801 7.78424 11.6959 7.77643C11.7116 7.76861 11.7234 7.7569 11.7352 7.73735C11.747 7.71783 11.747 7.66702 11.7628 7.65531C11.7785 7.64358 11.7943 7.65139 11.81 7.63184C11.8218 7.61621 11.8612 7.57714 11.8651 7.55369C11.869 7.53025 11.8769 7.53025 11.8848 7.49899C11.8927 7.47165 11.9005 7.4482 11.9241 7.43647C11.9477 7.42865 11.9477 7.4482 11.9674 7.4521C11.9871 7.45602 12.0225 7.42865 12.0264 7.40521C12.0264 7.38176 12.0186 7.34661 12.0461 7.33096C12.0697 7.31143 12.1248 7.2997 12.1366 7.28407C12.1484 7.26844 12.1406 7.22546 12.1524 7.21373C12.1681 7.20202 12.1996 7.19029 12.2114 7.1942C12.2232 7.20202 12.2114 7.23717 12.2271 7.23717C12.2468 7.23328 12.2468 7.20591 12.2586 7.21373C12.2704 7.21373 12.2823 7.24891 12.2901 7.23717C12.3019 7.22155 12.298 7.1942 12.2901 7.17076C12.2823 7.14731 12.2783 7.10432 12.298 7.09651C12.3137 7.08869 12.3295 7.07306 12.3373 7.08869C12.3452 7.10824 12.3491 7.11605 12.3649 7.08869C12.3767 7.06135 12.3688 7.05353 12.3846 7.0418C12.4043 7.03399 12.3806 7.01836 12.3885 7.00662C12.3964 6.99491 12.4003 6.95973 12.4121 6.95584C12.4239 6.95192 12.4161 6.9441 12.4318 6.92458C12.4475 6.90503 12.4593 6.8894 12.4711 6.90503C12.483 6.92066 12.483 6.92847 12.4987 6.93239C12.5184 6.94021 12.5262 6.95192 12.5184 6.96365C12.5144 6.97536 12.5223 7.00273 12.5302 6.99491C12.538 6.99099 12.5577 6.99881 12.5617 6.9871C12.5617 6.97147 12.5577 6.97536 12.5459 6.96755C12.5341 6.95584 12.5302 6.92847 12.5341 6.91676C12.538 6.90503 12.5262 6.90503 12.538 6.90113C12.5498 6.89332 12.5538 6.8855 12.5498 6.86595C12.5498 6.84643 12.542 6.8308 12.5302 6.83469C12.5184 6.84251 12.5144 6.85424 12.5144 6.85814C12.5105 6.86595 12.5105 6.8855 12.4987 6.87769C12.4869 6.86595 12.479 6.85032 12.4869 6.83469C12.4948 6.82298 12.5026 6.82298 12.5066 6.81517C12.5105 6.80735 12.5026 6.79562 12.5184 6.79562C12.5341 6.79562 12.542 6.81125 12.542 6.79562C12.5459 6.78391 12.542 6.77999 12.5498 6.77609C12.5577 6.76828 12.5577 6.77217 12.5617 6.75654C12.5656 6.74091 12.5656 6.72139 12.5813 6.7292C12.5971 6.73702 12.5892 6.76436 12.5971 6.76828C12.601 6.77609 12.6128 6.76046 12.6168 6.77217C12.6207 6.77999 12.6128 6.80735 12.6246 6.81125C12.6364 6.81517 12.6718 6.80735 12.6837 6.80343C12.6994 6.80343 12.7191 6.7878 12.7309 6.79954C12.7387 6.81125 12.7191 6.82298 12.7309 6.82298C12.7387 6.82298 12.7545 6.81517 12.7584 6.82688C12.7624 6.83861 12.7545 6.86987 12.7545 6.86987C12.7545 6.86987 12.7545 6.88158 12.7427 6.8855C12.7348 6.89332 12.7348 6.91284 12.7151 6.91676C12.6994 6.92066 12.66 6.93239 12.6561 6.92066C12.6522 6.90895 12.6561 6.8855 12.6482 6.88158C12.6404 6.87769 12.6325 6.8855 12.6286 6.87769C12.6246 6.86987 12.6246 6.85814 12.6168 6.86595C12.6089 6.86987 12.6168 6.89721 12.6128 6.90895C12.6128 6.91676 12.6089 6.92847 12.6168 6.92847C12.6286 6.92847 12.6364 6.92066 12.6364 6.92847C12.6404 6.93629 12.6364 6.96365 12.6364 6.98318C12.6364 6.99881 12.6364 7.03399 12.6404 7.0418C12.6482 7.04962 12.6561 7.05743 12.664 7.05353C12.6758 7.05353 12.6994 7.04962 12.7112 7.04962C12.723 7.04962 12.7151 7.0379 12.723 7.03009C12.7309 7.02227 12.7466 7.01836 12.7387 7.00273C12.7348 6.99099 12.7309 6.97536 12.7387 6.97147C12.7505 6.97147 12.7466 6.97147 12.7466 6.95192C12.7466 6.93629 12.7309 6.92458 12.7466 6.92458C12.7584 6.92458 12.7702 6.91676 12.7663 6.90895C12.7624 6.89721 12.7702 6.8855 12.7742 6.88158C12.782 6.87769 12.7899 6.88158 12.7938 6.86595C12.7978 6.85424 12.7978 6.84643 12.8057 6.84251C12.8135 6.83861 12.8057 6.82688 12.8175 6.82298C12.8293 6.82298 12.8293 6.81906 12.8293 6.80735C12.8293 6.79562 12.8253 6.7878 12.8371 6.78391C12.8529 6.77999 12.8568 6.77999 12.8607 6.79172C12.8647 6.80735 12.8725 6.7878 12.8844 6.80735C12.8922 6.82688 12.8804 6.83861 12.8765 6.83861C12.8725 6.83861 12.8686 6.85032 12.8647 6.85424C12.8568 6.86206 12.8529 6.85424 12.8489 6.86595C12.845 6.88158 12.8568 6.89721 12.8489 6.89721C12.8371 6.89721 12.8253 6.89721 12.8253 6.90895C12.8293 6.92066 12.8411 6.93629 12.8293 6.94021C12.8214 6.94021 12.8253 6.95973 12.8175 6.95973C12.8135 6.95584 12.7978 6.94802 12.7978 6.96365C12.7978 6.98318 12.7938 7.01054 12.8057 7.01444C12.8175 7.02225 12.8332 7.03007 12.8332 7.01444C12.8293 7.00273 12.8332 6.99491 12.8411 6.99491C12.8489 6.99491 12.8725 7.00662 12.8725 6.99491C12.8725 6.98318 12.8607 6.95192 12.8686 6.95192C12.8765 6.95192 12.8686 6.93629 12.8765 6.93629C12.8844 6.93629 12.9158 6.92458 12.9158 6.90895C12.9158 6.89721 12.9158 6.8855 12.9277 6.8855C12.9395 6.8855 12.9434 6.8894 12.9552 6.87377C12.967 6.85814 12.9631 6.82298 12.9591 6.79954C12.9591 6.77217 12.9513 6.75654 12.9434 6.75265C12.9395 6.74483 12.9277 6.72528 12.9355 6.70574C12.9434 6.69011 12.9513 6.66666 12.9591 6.67448C12.9709 6.67839 12.9827 6.69792 12.9945 6.69011C13.0064 6.68229 13.0103 6.67839 13.0182 6.66276C13.03 6.65103 13.0339 6.63932 13.0457 6.6315C13.0614 6.62369 13.0693 6.60806 13.0614 6.60806C13.0496 6.60414 13.0418 6.61587 13.0418 6.59633C13.0378 6.5807 13.03 6.58461 13.026 6.56507C13.026 6.54554 13.0339 6.52991 13.0496 6.52599C13.0654 6.52599 13.0929 6.54944 13.1008 6.54162C13.1087 6.53772 13.1284 6.52599 13.1323 6.51428C13.1323 6.50255 13.1559 6.49083 13.1598 6.4791C13.1677 6.46739 13.1559 6.44394 13.1638 6.44003C13.1795 6.43613 13.1677 6.41268 13.1953 6.41268C13.2189 6.41658 13.2071 6.42832 13.2228 6.44003C13.2425 6.44784 13.2346 6.46347 13.2621 6.48302C13.2897 6.50255 13.3094 6.53381 13.3133 6.51818C13.3212 6.50255 13.333 6.50255 13.3487 6.49473C13.3645 6.49083 13.3605 6.4752 13.3763 6.45958C13.3881 6.44394 13.3999 6.43221 13.4156 6.41658C13.4314 6.40095 13.4156 6.38924 13.4432 6.3814C13.4707 6.37359 13.4825 6.38532 13.4904 6.36188C13.5022 6.33843 13.4943 6.31888 13.5101 6.30325C13.5258 6.28762 13.5376 6.26418 13.5573 6.26028C13.573 6.25636 13.5848 6.25247 13.6006 6.24073C13.6163 6.22902 13.6242 6.22902 13.6242 6.20558C13.6203 6.18213 13.6163 6.1665 13.6085 6.1665C13.6006 6.1665 13.5809 6.13524 13.5927 6.13132C13.6045 6.12743 13.6203 6.13132 13.6281 6.11961C13.636 6.10788 13.6321 6.08443 13.6281 6.07662C13.6281 6.06489 13.6163 6.02581 13.6203 6.018C13.6281 6.0141 13.6439 6.018 13.6439 6.00628C13.64 5.99455 13.6321 5.97892 13.64 5.97111C13.6439 5.96721 13.6557 5.96329 13.6557 5.95158C13.6636 5.93985 13.6675 5.9164 13.6793 5.92814C13.6911 5.93985 13.7029 5.93985 13.7029 5.95548C13.7029 5.97111 13.7187 5.99455 13.7029 5.99847C13.6911 6.00237 13.6872 6.01018 13.6872 6.02581C13.6911 6.04144 13.6832 6.05707 13.6872 6.06099C13.699 6.06099 13.7108 6.05707 13.7147 6.06099C13.7147 6.06489 13.7108 6.08052 13.7187 6.08052C13.7265 6.08052 13.7462 6.09225 13.758 6.08052C13.7659 6.0688 13.758 6.05707 13.7659 6.05317C13.7777 6.04926 13.7777 6.03754 13.7934 6.03363C13.8052 6.03363 13.8367 6.04144 13.8407 6.02973C13.8407 6.0141 13.8407 6.00628 13.8564 5.99847C13.8682 5.99066 13.8682 5.97503 13.8839 5.97111C13.8957 5.96329 13.8957 5.97892 13.9154 5.9594C13.939 5.93985 13.9469 5.93595 13.9587 5.92032C13.9745 5.90469 13.9823 5.90859 13.9862 5.89296C13.9902 5.87733 14.0059 5.87733 14.0099 5.8617C14.0138 5.84607 14.002 5.83825 14.0138 5.82654C14.0335 5.81481 14.0689 5.81873 14.0728 5.81091C14.0768 5.8031 14.0728 5.79136 14.0846 5.79136C14.0964 5.79136 14.124 5.8031 14.1319 5.79136C14.1397 5.77573 14.1279 5.76402 14.1515 5.7601C14.1752 5.75621 14.1791 5.7601 14.1948 5.74055C14.2027 5.71711 14.2027 5.70148 14.2106 5.69366C14.2224 5.68195 14.2184 5.68195 14.2184 5.6624C14.2184 5.64288 14.2027 5.6077 14.2184 5.59988C14.2381 5.58817 14.2381 5.57644 14.2499 5.57644C14.2617 5.57644 14.2578 5.56473 14.2853 5.56081C14.309 5.55691 14.3247 5.53736 14.3326 5.52565C14.3444 5.51392 14.3641 5.52955 14.3719 5.51002C14.3759 5.48658 14.3719 5.47876 14.3837 5.47485C14.3995 5.47485 14.4231 5.49048 14.4388 5.47095C14.4506 5.44748 14.4349 5.41233 14.4428 5.3967C14.4506 5.38496 14.4546 5.37325 14.4624 5.34199C14.4664 5.31073 14.4585 5.29118 14.4664 5.27555C14.4782 5.25992 14.4782 5.25992 14.49 5.23648C14.5057 5.21695 14.49 5.20522 14.5136 5.1974C14.5333 5.18959 14.5451 5.19351 14.553 5.18177C14.5569 5.16614 14.5372 5.10752 14.5451 5.09581C14.553 5.08408 14.5687 5.08018 14.5766 5.06455C14.5884 5.05282 14.5766 5.045 14.608 5.045C14.6395 5.0411 14.6671 5.02937 14.6868 5.0411C14.7025 5.05282 14.7143 5.045 14.73 5.06063C14.7418 5.07236 14.7379 5.09581 14.7497 5.09971C14.7615 5.10752 14.7655 5.14662 14.7733 5.13488C14.7851 5.12317 14.7733 5.09971 14.7851 5.09189C14.7969 5.08799 14.7891 5.06455 14.8009 5.05673C14.8127 5.04892 14.8245 5.06063 14.8402 5.045C14.856 5.03329 14.8599 5.03719 14.8638 5.01766C14.8638 4.99811 14.8599 4.97858 14.8678 4.96685C14.8757 4.95904 14.8757 4.96685 14.8835 4.94732C14.8875 4.92778 14.8914 4.91996 14.9071 4.90825C14.9229 4.90433 14.9544 4.89652 14.9622 4.88089C14.9701 4.86526 14.9583 4.85354 14.9701 4.84181C14.9858 4.8301 14.9858 4.82226 14.9898 4.80663C14.9977 4.791 15.0016 4.791 15.0016 4.77537C14.9977 4.75974 14.9977 4.74411 15.0016 4.7324C15.0095 4.72848 15.0252 4.72459 15.0409 4.71677C15.0567 4.70896 15.0409 4.69333 15.0488 4.68159C15.0606 4.66988 15.0842 4.68159 15.0842 4.66207C15.0882 4.64252 15.0764 4.63081 15.096 4.63081C15.1118 4.63081 15.1236 4.64252 15.1236 4.66596C15.1236 4.68941 15.1275 4.70114 15.1196 4.71677C15.1078 4.7324 15.096 4.74022 15.1078 4.74803C15.1196 4.75585 15.1511 4.76366 15.1629 4.75193C15.1747 4.74411 15.1826 4.74803 15.1787 4.72848C15.1787 4.70504 15.2023 4.70504 15.2062 4.69333C15.2141 4.6777 15.2102 4.65425 15.222 4.65815C15.2377 4.66207 15.2259 4.6777 15.2416 4.68159C15.2534 4.68551 15.2534 4.70896 15.2652 4.70504C15.281 4.70114 15.2849 4.69722 15.2889 4.6777C15.2889 4.65815 15.2928 4.64644 15.281 4.6347C15.2652 4.62689 15.2613 4.60736 15.2495 4.59563C15.2416 4.58392 15.2456 4.55266 15.2338 4.54874C15.222 4.54092 15.2141 4.5214 15.2141 4.50577C15.2141 4.49012 15.2023 4.4823 15.222 4.46667C15.2416 4.44714 15.2652 4.45104 15.2731 4.43933C15.2849 4.4237 15.3007 4.41197 15.3046 4.40025C15.3046 4.38852 15.3203 4.36899 15.3203 4.36118C15.3203 4.34945 15.3321 4.34163 15.34 4.326C15.3479 4.31429 15.3518 4.28693 15.3676 4.28693C15.3833 4.28693 15.3794 4.30648 15.3912 4.30648C15.4109 4.30648 15.4148 4.32992 15.4109 4.34555C15.403 4.36118 15.3912 4.36508 15.3833 4.37681C15.3754 4.38852 15.3872 4.41588 15.3754 4.43151C15.3676 4.43933 15.3597 4.45496 15.34 4.45886C15.3203 4.46667 15.3203 4.47449 15.3085 4.49014C15.3007 4.50577 15.2889 4.51748 15.2928 4.53703C15.2967 4.55655 15.3046 4.55655 15.3203 4.55655C15.3361 4.55655 15.344 4.53311 15.3636 4.52921C15.3794 4.52921 15.3951 4.53311 15.403 4.52529C15.4109 4.51748 15.4305 4.49795 15.4423 4.49014C15.4502 4.4784 15.4541 4.4784 15.4541 4.45496C15.4541 4.43151 15.4463 4.41978 15.462 4.41197C15.4778 4.40415 15.4817 4.38462 15.5014 4.38462C15.5171 4.38071 15.525 4.36118 15.5407 4.36118C15.5525 4.36118 15.5998 4.36118 15.6076 4.35336C15.6116 4.34163 15.6194 4.32992 15.6273 4.31819C15.6312 4.31037 15.643 4.29866 15.643 4.27911C15.643 4.25959 15.6352 4.25567 15.643 4.24785C15.6548 4.24004 15.6548 4.23222 15.6548 4.21659C15.6548 4.19707 15.647 4.1736 15.6588 4.16578C15.6745 4.15797 15.6785 4.15015 15.6824 4.16189C15.6824 4.17752 15.6785 4.20096 15.6903 4.20878C15.6942 4.22051 15.706 4.22833 15.7178 4.21659C15.7296 4.20488 15.7296 4.20096 15.7414 4.18925C15.7532 4.17752 15.7454 4.17752 15.7572 4.16578C15.769 4.15407 15.765 4.15407 15.7768 4.14234C15.7887 4.13063 15.7965 4.13063 15.7965 4.10326C15.7965 4.07592 15.7887 4.07982 15.7808 4.06811C15.7729 4.05637 15.7729 4.04466 15.7729 4.04466C15.7729 4.04466 15.7611 4.00948 15.7729 3.99777C15.7808 3.98604 15.8162 3.98214 15.8201 3.99385C15.8241 4.00167 15.832 4.04074 15.832 4.05248C15.832 4.06029 15.8201 4.07982 15.828 4.08374C15.8359 4.09155 15.8555 4.07982 15.8555 4.09545C15.8555 4.11108 15.8555 4.15797 15.8555 4.1697C15.8516 4.18141 15.8398 4.20488 15.8201 4.22441C15.7965 4.24004 15.7611 4.29085 15.7572 4.29866C15.7532 4.30648 15.7296 4.29866 15.7178 4.31429C15.706 4.326 15.6903 4.34163 15.6903 4.35336C15.6903 4.36508 15.6942 4.37681 15.6824 4.38462C15.6706 4.39244 15.6548 4.37681 15.6509 4.39244C15.643 4.41197 15.643 4.43933 15.6391 4.45496C15.6352 4.47059 15.6312 4.49403 15.6312 4.49403C15.6312 4.49403 15.6155 4.50185 15.6116 4.50966C15.6076 4.51748 15.6116 4.52529 15.5958 4.52921C15.5801 4.53311 15.5761 4.54484 15.5604 4.53311C15.5447 4.5214 15.5486 4.51356 15.5407 4.51356C15.5289 4.51356 15.5092 4.53703 15.5092 4.53703L15.4778 4.57218C15.4778 4.57218 15.5014 4.62299 15.4817 4.62299C15.462 4.62299 15.4699 4.65425 15.4699 4.65425L15.4502 4.69333C15.4502 4.69333 15.4384 4.72067 15.4148 4.72067C15.3912 4.72067 15.3636 4.75193 15.3636 4.75193L15.3282 4.77537L15.3046 4.81445C15.3046 4.81445 15.3164 4.86526 15.2967 4.86917C15.2771 4.87307 15.2495 4.89262 15.2495 4.89262L15.2023 4.92388L15.1826 4.9864C15.1826 4.9864 15.1905 5.02156 15.1747 5.02937C15.159 5.03719 15.1314 5.0411 15.1314 5.0411C15.1314 5.0411 15.1275 5.0411 15.1236 5.06455C15.1157 5.08799 15.096 5.10362 15.096 5.10362L15.0882 5.13878L15.0527 5.15833L15.0252 5.18177L15.0055 5.18959L14.9977 5.21695L14.9465 5.27947L14.8953 5.33807C14.8953 5.33807 14.8717 5.34981 14.8638 5.36152C14.8599 5.37325 14.8324 5.37325 14.8324 5.37325C14.8324 5.37325 14.8442 5.36933 14.8245 5.38496C14.8087 5.40451 14.793 5.42014 14.793 5.42014C14.793 5.42014 14.8087 5.45922 14.793 5.46313C14.7773 5.46703 14.7222 5.45922 14.7104 5.47095C14.6986 5.48266 14.6789 5.51002 14.6789 5.51002L14.6317 5.54128L14.5608 5.63114L14.5175 5.68585C14.5175 5.68585 14.5057 5.74839 14.49 5.7601C14.4782 5.77184 14.4782 5.79528 14.4506 5.79918C14.427 5.8031 14.3759 5.80699 14.3759 5.80699C14.3759 5.80699 14.3562 5.80699 14.3523 5.79136C14.3444 5.77573 14.3444 5.74447 14.3326 5.75229C14.3208 5.75618 14.3247 5.79136 14.3286 5.8031C14.3326 5.81481 14.3483 5.8031 14.3483 5.81873C14.3522 5.83825 14.3601 5.84607 14.3523 5.86951C14.3404 5.89296 14.3365 5.91251 14.3208 5.92032C14.2971 5.92814 14.2735 5.9164 14.2696 5.93203C14.2578 5.94766 14.2421 5.96329 14.2224 5.95548C14.2066 5.94377 14.1988 5.94766 14.1909 5.92422C14.183 5.90077 14.1752 5.88906 14.1555 5.89688C14.1358 5.90077 14.1397 5.92032 14.1319 5.93595C14.124 5.94766 14.1201 5.97503 14.1161 5.98284C14.1082 5.99065 14.0964 5.98674 14.1004 6.00628C14.1043 6.02191 14.124 5.99455 14.1201 6.03363C14.1161 6.07272 14.0964 6.0688 14.0846 6.08052C14.0728 6.09225 14.061 6.09225 14.0532 6.11569C14.0414 6.13524 14.0492 6.14695 14.0217 6.14695C13.9981 6.15087 13.9941 6.14306 13.9823 6.15477C13.9745 6.1665 13.9823 6.20558 13.9627 6.21339C13.9508 6.2251 13.9705 6.24855 13.9548 6.28373C13.9351 6.31888 13.9154 6.31888 13.8839 6.33062C13.8525 6.34233 13.821 6.39314 13.8092 6.40877C13.7974 6.4205 13.7777 6.43613 13.762 6.45176C13.7423 6.46739 13.7068 6.50255 13.6911 6.52599C13.6793 6.54554 13.6832 6.5807 13.6518 6.58461C13.6203 6.58851 13.5967 6.61196 13.5691 6.63932C13.5455 6.66666 13.5494 6.68229 13.5258 6.70965C13.5101 6.73702 13.5101 6.75265 13.4865 6.75265C13.4628 6.75265 13.4668 6.77999 13.4432 6.77999C13.4235 6.77999 13.4038 6.81125 13.4038 6.81125L13.3723 6.85814C13.3723 6.85814 13.3448 6.84643 13.3369 6.86595C13.3291 6.8855 13.3054 6.90895 13.3054 6.90895C13.3054 6.90895 13.3251 6.94021 13.3015 6.94021C13.2779 6.94021 13.274 6.95584 13.2621 6.97147C13.2464 6.98318 13.2621 7.00273 13.2307 7.00273C13.1992 7.00273 13.1795 7.03399 13.1795 7.03399C13.1795 7.03399 13.1874 7.06135 13.1559 7.06525C13.1284 7.06916 13.1126 7.06916 13.1087 7.08869C13.1087 7.10824 13.0929 7.13168 13.0772 7.14731C13.0575 7.16684 13.0457 7.15903 13.03 7.17465C13.0142 7.1942 13.0103 7.1942 12.9906 7.22155C12.9749 7.24891 12.9631 7.27625 12.9395 7.27625C12.9158 7.28017 12.9119 7.25281 12.8962 7.26062C12.8765 7.27235 12.8844 7.28017 12.8725 7.31143C12.8568 7.34269 12.8529 7.33095 12.8332 7.3505C12.8135 7.37005 12.8253 7.40913 12.8057 7.41694C12.786 7.42084 12.7545 7.41302 12.7427 7.44039C12.727 7.46773 12.7505 7.47554 12.727 7.50291C12.7033 7.53025 12.6797 7.51072 12.6718 7.53417C12.664 7.55761 12.6482 7.57324 12.6286 7.60058C12.6089 7.62794 12.6168 7.63966 12.5892 7.65139C12.5577 7.65921 12.5459 7.67094 12.538 7.69046C12.5223 7.71391 12.5538 7.72954 12.5066 7.74517C12.4593 7.7569 12.4515 7.75299 12.4554 7.77253C12.4593 7.79206 12.4633 7.80769 12.4475 7.80379C12.4357 7.79987 12.4239 7.75299 12.42 7.76472C12.4121 7.77253 12.4121 7.77253 12.3924 7.78816C12.3728 7.80379 12.361 7.79987 12.361 7.81942C12.357 7.84287 12.3806 7.89757 12.357 7.90539C12.3373 7.9132 12.3137 7.89365 12.3019 7.92102C12.2901 7.94446 12.2665 7.97964 12.2665 7.97964C12.2665 7.97964 12.2271 7.99527 12.2232 8.01872C12.2193 8.03824 12.2311 8.03435 12.2154 8.05779C12.1996 8.08123 12.1839 8.11249 12.1603 8.11639C12.1366 8.12421 12.1327 8.13984 12.1209 8.15939C12.1052 8.17891 12.1091 8.20627 12.0855 8.20236C12.0619 8.19846 12.0383 8.19454 12.0343 8.20627C12.0304 8.21799 12.0619 8.23753 12.0304 8.24535C11.9989 8.25316 11.9792 8.26098 11.9714 8.27269C11.9635 8.28053 11.9359 8.3196 11.9281 8.33131C11.9202 8.34305 11.9084 8.32742 11.8887 8.34694C11.869 8.36649 11.8494 8.40165 11.8454 8.4212C11.8415 8.44464 11.8533 8.44464 11.8257 8.46809C11.7982 8.49153 11.7982 8.51498 11.7864 8.53842C11.7825 8.56187 11.7628 8.60094 11.7392 8.62049C11.7195 8.64393 11.692 8.64783 11.688 8.66738C11.688 8.68691 11.688 8.70645 11.6644 8.71035C11.6408 8.71427 11.6329 8.73771 11.6172 8.74553C11.5975 8.75334 11.5818 8.76897 11.5542 8.80805C11.5227 8.85102 11.4873 8.89791 11.4716 8.92138C11.4519 8.94482 11.4361 8.97216 11.4125 8.99171C11.3889 9.01124 11.3653 9.00342 11.3456 9.02297C11.326 9.0425 11.3338 9.05813 11.3181 9.07768C11.3023 9.0972 11.3102 9.13238 11.2905 9.13628C11.2709 9.1402 11.2905 9.14801 11.2709 9.15972C11.2473 9.17146 11.2473 9.17927 11.2158 9.21053C11.1882 9.24179 11.1331 9.28478 11.1253 9.29649C11.1174 9.31213 11.1213 9.32776 11.1056 9.3512C11.0898 9.37465 11.0702 9.39419 11.0584 9.41372C11.0505 9.42935 11.0584 9.4528 11.0387 9.47624C11.019 9.49579 11.0033 9.53878 10.9875 9.54268C10.9678 9.54268 10.9364 9.53486 10.9324 9.55441C10.9285 9.57786 10.9364 9.64038 10.9246 9.6599C10.9127 9.67945 10.8813 9.71461 10.8655 9.73024C10.8498 9.74978 10.8183 9.77713 10.8065 9.78494C10.7907 9.79276 10.7711 9.83183 10.7475 9.8553C10.7278 9.87874 10.712 9.89045 10.7002 9.91C10.6884 9.92953 10.7002 9.95689 10.6727 9.96471C10.6451 9.97252 10.6333 9.95689 10.6215 9.97252C10.6058 9.98815 10.6294 10.0116 10.6058 10.0155C10.5861 10.0233 10.5782 10.0272 10.5664 10.0429C10.5546 10.0624 10.5625 10.0663 10.5468 10.0936C10.531 10.121 10.535 10.1601 10.5074 10.164C10.4838 10.164 10.4838 10.1835 10.472 10.2031C10.4562 10.2226 10.4523 10.2265 10.4208 10.2656C10.3933 10.3047 10.3421 10.3476 10.3343 10.3711C10.3303 10.3945 10.3106 10.4258 10.3028 10.4375C10.291 10.4492 10.291 10.4727 10.2713 10.4805C10.2555 10.4883 10.2162 10.4844 10.1965 10.4961C10.1768 10.5118 10.165 10.5352 10.1453 10.5391C10.1217 10.5391 10.1257 10.5235 10.1178 10.5469C10.1099 10.5704 10.1099 10.6251 10.0942 10.6407C10.0784 10.6563 10.0509 10.7072 10.0391 10.7267C10.0273 10.7462 10.0194 10.754 9.99974 10.7658C9.98007 10.7775 9.96432 10.7892 9.94857 10.8127C9.9289 10.8361 9.90923 10.8596 9.90528 10.8791C9.89741 10.8986 9.90528 10.926 9.89349 10.9338C9.88169 10.9416 9.84627 10.9299 9.83445 10.9455C9.82265 10.9611 9.80298 10.9885 9.79116 11.008C9.77542 11.0276 9.75969 11.0432 9.75574 11.0627C9.75182 11.0823 9.72428 11.0784 9.71245 11.0979C9.70458 11.1135 9.70458 11.1565 9.68491 11.18C9.66524 11.2034 9.62588 11.2073 9.618 11.2347C9.61013 11.262 9.61408 11.2659 9.61013 11.2972C9.60228 11.3246 9.60228 11.3519 9.60228 11.3519C9.60228 11.3519 9.57471 11.3558 9.58653 11.3636C9.59833 11.3753 9.61013 11.3558 9.61013 11.3793C9.61013 11.4027 9.61408 11.4379 9.618 11.4379C9.62588 11.4418 9.64162 11.4379 9.64162 11.4457C9.64162 11.4574 9.62982 11.4457 9.62195 11.4613C9.618 11.473 9.64557 11.5121 9.62588 11.516C9.60621 11.5199 9.58259 11.5238 9.55504 11.5434C9.5275 11.5629 9.51175 11.5629 9.47241 11.5707C9.43305 11.5824 9.4055 11.5903 9.37401 11.5981C9.34254 11.6059 9.3268 11.5981 9.31105 11.6333C9.29531 11.6684 9.29925 11.6645 9.28351 11.6958C9.26384 11.727 9.25596 11.77 9.26384 11.8208C9.27171 11.8716 9.26776 11.8716 9.27956 11.8912C9.29138 11.9146 9.30318 11.9068 9.315 11.9224C9.32285 11.942 9.32285 11.981 9.33072 12.0006C9.34254 12.0162 9.35829 12.0006 9.37009 12.0162C9.38976 12.0279 9.40943 12.0944 9.39763 12.1139C9.38976 12.1295 9.38976 12.1608 9.36614 12.1764C9.34647 12.196 9.35042 12.192 9.34647 12.2155C9.3386 12.2389 9.35434 12.2311 9.3386 12.2624C9.3268 12.2976 9.32285 12.3288 9.28351 12.3366C9.24414 12.3405 9.23235 12.3444 9.22842 12.364C9.22447 12.3796 9.23627 12.407 9.21268 12.4265C9.193 12.4421 9.23235 12.4617 9.20085 12.4656C9.16544 12.4773 9.14577 12.4968 9.11822 12.4812C9.09068 12.4656 9.08281 12.4421 9.06706 12.4226C9.04739 12.4031 9.04344 12.3835 9.0159 12.3953C8.98443 12.4031 8.97656 12.4226 8.97656 12.4421C8.97656 12.4617 8.97261 12.5007 8.97656 12.5007C8.98443 12.4968 9.01197 12.5086 8.99623 12.5164C8.97656 12.5242 8.98048 12.5281 8.98048 12.5515C8.98048 12.5711 9.00015 12.5711 9.0041 12.5867C9.01197 12.5984 9.0159 12.618 9.0041 12.6453C8.98835 12.6727 8.97261 12.6727 8.97656 12.704C8.98443 12.7313 8.99623 12.7196 8.99228 12.7547C8.99228 12.786 8.98443 12.8173 8.96081 12.8251C8.93327 12.8368 8.91357 12.8251 8.91752 12.8603C8.92145 12.8954 8.91357 12.9267 8.89785 12.9697C8.88603 13.0087 8.90572 13.0205 8.8821 13.0674C8.86243 13.1103 8.87029 13.1611 8.87029 13.1846C8.87029 13.2041 8.84669 13.2237 8.83881 13.2471C8.83487 13.2744 8.81914 13.2666 8.8152 13.3096C8.81127 13.3565 8.83881 13.4581 8.82307 13.4855C8.80732 13.5089 8.79553 13.4933 8.79158 13.5206C8.78765 13.5441 8.79945 13.5441 8.76403 13.5832C8.72862 13.6183 8.70107 13.6457 8.67745 13.6535C8.64991 13.6613 8.60662 13.6535 8.59875 13.673C8.58695 13.6848 8.56333 13.7121 8.54759 13.7395C8.52399 13.7668 8.52004 13.7903 8.48857 13.7942C8.45708 13.7981 8.44528 13.8059 8.43741 13.8293C8.42559 13.8528 8.402 13.8762 8.39805 13.9036C8.39412 13.9309 8.39412 13.9583 8.35476 13.9778C8.31934 13.9974 8.2918 14.0286 8.27605 14.0286C8.26031 14.0286 8.25243 14.013 8.22884 14.013C8.20522 14.013 8.19735 14.0364 8.19342 14.056C8.19342 14.0755 8.17767 14.1068 8.14618 14.1146C8.11864 14.1185 8.09502 14.1029 8.07535 14.1302C8.0596 14.1537 8.04781 14.1615 8.05173 14.1693C8.05568 14.181 8.05173 14.2279 8.03993 14.2084C8.02814 14.1888 8.02026 14.1927 8.00059 14.181C7.98485 14.1654 7.9691 14.1576 7.9691 14.1771C7.9691 14.1927 7.94548 14.2084 7.94156 14.2279C7.93761 14.2475 7.93368 14.2592 7.91794 14.2709C7.89827 14.2826 7.89827 14.2826 7.89432 14.3061C7.89039 14.3295 7.91007 14.3491 7.89432 14.3686C7.87465 14.3842 7.87465 14.3803 7.87857 14.4077C7.88645 14.435 7.89039 14.435 7.87857 14.4545C7.86678 14.4741 7.86285 14.5014 7.84316 14.5054C7.82349 14.5093 7.82743 14.4975 7.81169 14.521C7.79987 14.5484 7.80382 14.5561 7.77627 14.5561C7.74873 14.5561 7.76053 14.5366 7.73691 14.5405C7.71724 14.5405 7.66215 14.5327 7.65033 14.5483C7.63853 14.564 7.63853 14.5913 7.61886 14.5913C7.59524 14.5952 7.52046 14.5874 7.49292 14.607C7.46537 14.6226 7.44963 14.6421 7.44175 14.6695C7.43388 14.6929 7.42996 14.6812 7.41421 14.7164C7.40241 14.7476 7.40241 14.7476 7.38272 14.7554C7.36305 14.7633 7.3473 14.7437 7.34338 14.7711C7.3355 14.7984 7.3473 14.8062 7.33158 14.8297C7.31583 14.8492 7.30796 14.8492 7.28434 14.8649C7.26072 14.8766 7.26072 14.9 7.22138 14.9039C7.18596 14.9078 7.18596 14.8961 7.17417 14.8727C7.16629 14.8531 7.18202 14.8453 7.15842 14.8453C7.13088 14.8453 7.08759 14.8492 7.07184 14.8531C7.0561 14.8571 7.06789 14.8805 7.05215 14.8766C7.03248 14.8727 7.02068 14.857 7.00101 14.8609C6.98526 14.8648 6.97344 14.8531 6.96164 14.8688C6.94985 14.8844 6.96164 14.9 6.94197 14.9039C6.92623 14.9078 6.85145 14.9 6.83965 14.9118C6.82785 14.9274 6.84752 14.9508 6.83178 14.9547C6.81998 14.9586 6.82785 14.9821 6.8121 14.986C6.79636 14.9899 6.75702 15.0134 6.70978 15.0134H6.55629C6.5327 15.0134 6.47759 15.0134 6.45792 15.0055C6.43824 14.9977 6.38708 14.9899 6.38708 14.9821C6.38316 14.9743 6.38316 14.9508 6.37134 14.9508C6.35954 14.943 6.332 14.943 6.332 14.943C6.332 14.943 6.31625 14.9313 6.29658 14.9313C6.27689 14.9313 6.27296 14.943 6.27296 14.9547C6.27296 14.9704 6.25721 14.9782 6.2336 14.9899C6.20605 15.0016 6.12735 15.0094 6.11555 15.0094C6.10373 15.0055 6.07226 14.9938 6.07226 14.9938C6.07226 14.9938 6.05259 14.9625 6.03289 14.943C6.01322 14.9196 5.98568 14.9078 5.96601 14.9078C5.95026 14.9078 5.93059 14.9 5.92272 14.8883C5.91485 14.8766 5.88335 14.8727 5.86368 14.8727C5.84401 14.8727 5.82827 14.8727 5.81252 14.8883C5.80072 14.9039 5.78103 14.9235 5.76923 14.9078C5.75743 14.8883 5.72989 14.9 5.72989 14.8844C5.72989 14.8649 5.7102 14.8336 5.69445 14.8219C5.68265 14.8101 5.65511 14.7711 5.63544 14.7672C5.61575 14.7633 5.59215 14.775 5.56853 14.7554C5.54491 14.732 5.54491 14.7125 5.52917 14.6968C5.5095 14.6812 5.5095 14.6812 5.48588 14.6734C5.45833 14.6656 5.40717 14.6929 5.3875 14.6773C5.37175 14.6578 5.34816 14.646 5.31274 14.6304C5.28125 14.6148 5.22616 14.5601 5.19467 14.5366C5.16318 14.5093 5.15138 14.5171 5.13171 14.4819C5.11596 14.4467 5.11596 14.4155 5.09629 14.4155C5.08055 14.4155 5.08447 14.435 5.0648 14.4077C5.04513 14.3803 5.04118 14.3647 5.02151 14.3686C5.00184 14.3686 4.94281 14.3803 4.91919 14.3764C4.89164 14.3725 4.86803 14.3764 4.8641 14.3491C4.86018 14.3217 4.85623 14.2748 4.84835 14.2396C4.84443 14.2045 4.82868 14.2045 4.81689 14.1967C4.80114 14.1849 4.78539 14.1771 4.79719 14.1654C4.80901 14.1576 4.81294 14.1419 4.80507 14.1146C4.79719 14.0872 4.78539 14.0755 4.76965 14.0794C4.7539 14.0872 4.74211 14.0951 4.73031 14.0833C4.72243 14.0716 4.70274 14.0755 4.68307 14.0638C4.6634 14.0521 4.6752 14.0364 4.6516 14.0208C4.62798 14.0091 4.62403 13.9974 4.60044 13.9778C4.57682 13.9583 4.58075 13.9544 4.56107 13.9309C4.5414 13.9075 4.52566 13.888 4.52173 13.9114C4.50991 13.9309 4.51386 13.9466 4.49024 13.9466C4.46662 13.9427 4.47449 13.9348 4.45482 13.9309C4.43121 13.9231 4.38792 13.9309 4.36037 13.9348C4.33283 13.9348 4.3289 13.9505 4.30921 13.9192C4.28561 13.888 4.28167 13.8801 4.28167 13.8489C4.27774 13.8215 4.28954 13.8254 4.25412 13.7981C4.21871 13.7746 4.20296 13.7668 4.19903 13.7434C4.19509 13.7238 4.21083 13.7004 4.18329 13.7043C4.15967 13.7043 4.14393 13.6926 4.13605 13.7043C4.12818 13.7199 4.12033 13.7395 4.10458 13.7277C4.09276 13.716 4.09276 13.7043 4.07704 13.6769C4.06129 13.6535 4.05735 13.6418 4.03375 13.6379C4.01013 13.634 4.00226 13.6105 3.99439 13.6222C3.98651 13.634 3.98651 13.6652 3.95897 13.6457C3.92748 13.6261 3.88814 13.5949 3.88026 13.5714C3.87632 13.548 3.85664 13.5324 3.83697 13.5206C3.81335 13.5089 3.78581 13.5167 3.78189 13.4816C3.77794 13.4464 3.78189 13.4112 3.76614 13.3878C3.75039 13.3682 3.75039 13.294 3.7386 13.2744C3.72678 13.2588 3.7189 13.2666 3.70318 13.251C3.68743 13.2315 3.67169 13.2197 3.65594 13.2158C3.6402 13.2158 3.64807 13.1924 3.62447 13.1924C3.60085 13.1924 3.58903 13.2119 3.56149 13.1963C3.53395 13.1807 3.51428 13.1729 3.51033 13.1572C3.50248 13.1377 3.49853 13.0986 3.47491 13.0986C3.45132 13.1025 3.44344 13.1103 3.43162 13.1299C3.42375 13.1455 3.40803 13.1611 3.38441 13.1455C3.35686 13.1299 3.33325 13.1142 3.34899 13.0986C3.36474 13.083 3.36474 13.0048 3.35292 13.0009C3.33719 12.997 3.33719 12.9736 3.32537 12.9579C3.31357 12.9384 3.32537 12.9071 3.30963 12.9032C3.28996 12.9032 3.27816 12.9228 3.27028 12.9032C3.26634 12.8798 3.27816 12.9032 3.25454 12.8681C3.23487 12.8329 3.25061 12.7899 3.23092 12.7665C3.2152 12.743 3.17583 12.743 3.16403 12.7235C3.14829 12.704 3.14434 12.7 3.1168 12.6961C3.08925 12.6922 3.09318 12.6844 3.06564 12.6805C3.03809 12.6766 3.03417 12.6649 3.01842 12.6531C3.00662 12.6375 2.983 12.6297 2.983 12.6141C2.983 12.5984 2.9948 12.6023 2.97906 12.5906C2.96333 12.5789 2.95151 12.5828 2.96726 12.5672C2.983 12.5554 2.9948 12.532 2.97513 12.5281C2.95546 12.5242 2.93971 12.5398 2.93577 12.5125C2.93184 12.4851 2.93971 12.446 2.92397 12.4343C2.90822 12.4226 2.9043 12.4187 2.89643 12.3991C2.88855 12.3796 2.89643 12.3913 2.86493 12.3679C2.83346 12.3405 2.79018 12.3327 2.7941 12.3093C2.7941 12.2858 2.80197 12.2624 2.77836 12.2702C2.75476 12.278 2.75081 12.278 2.73507 12.2546C2.71934 12.2272 2.73114 12.1725 2.71147 12.1725C2.69178 12.1725 2.66423 12.1764 2.64456 12.1647C2.62489 12.1569 2.60127 12.153 2.58553 12.1413C2.56586 12.1334 2.57373 12.0983 2.55011 12.0748C2.53044 12.0514 2.53831 12.0279 2.50682 12.0201C2.47928 12.0123 2.45173 12.0162 2.42811 12.0045C2.40057 11.9927 2.39662 11.981 2.3927 11.938C2.38482 11.899 2.40057 11.7935 2.36515 11.7778C2.33366 11.7622 2.28645 11.7739 2.27857 11.7466C2.26678 11.7231 2.2589 11.7114 2.23134 11.688C2.20774 11.6645 2.18412 11.6411 2.17232 11.5981C2.16051 11.5551 2.17232 11.4965 2.14477 11.4457C2.11722 11.3949 2.09361 11.3714 2.05819 11.3636C2.02277 11.3558 1.99523 11.3597 1.96768 11.3363C1.94407 11.3128 1.89684 11.3011 1.86142 11.2503C1.82601 11.1956 1.82207 11.1448 1.80633 11.1174C1.79452 11.0901 1.77091 11.0979 1.7473 11.0627C1.72762 11.0237 1.71582 10.965 1.70007 10.9494C1.6804 10.9377 1.64498 10.9455 1.64891 10.9103C1.65285 10.8752 1.67253 10.8517 1.6253 10.84C1.58201 10.8283 1.57808 10.8556 1.54659 10.8205C1.51511 10.7892 1.49544 10.7462 1.4915 10.6876C1.48757 10.6251 1.4797 10.5743 1.46002 10.5547C1.44034 10.5391 1.43247 10.5079 1.39705 10.4805C1.36557 10.4492 1.34196 10.4453 1.31834 10.4063C1.29473 10.3633 1.3026 10.3828 1.27899 10.332C1.25931 10.2812 1.24751 10.246 1.22783 10.2265C1.21209 10.2031 1.18454 10.1874 1.16093 10.1523C1.13732 10.121 1.12551 10.0819 1.1019 10.0507C1.07829 10.0155 1.04287 10.0155 1.02319 9.99205C1.00352 9.9686 0.99171 9.95689 0.968099 9.92171C0.948421 9.88656 0.956292 9.80449 0.94055 9.78886C0.924809 9.77323 0.909068 9.7615 0.885456 9.73024C0.861844 9.7029 0.834296 9.68335 0.826425 9.64427C0.818555 9.6052 0.826425 9.60912 0.794943 9.58175C0.763458 9.55049 0.724105 9.54268 0.735912 9.52705C0.747717 9.5075 0.755588 9.47234 0.739846 9.47624C0.724105 9.48016 0.731976 9.42545 0.716235 9.40982C0.700493 9.39809 0.716235 9.36293 0.692623 9.36683C0.669011 9.36683 0.66114 9.38638 0.645399 9.35512C0.621787 9.32386 0.598173 9.27305 0.613917 9.25352C0.633592 9.23789 0.637528 9.22616 0.625721 9.20272C0.613917 9.18317 0.586368 9.14801 0.55882 9.14409C0.531274 9.1402 0.511596 9.14801 0.503726 9.0972C0.491919 9.05031 0.472243 9.05813 0.468307 8.99561C0.468307 8.92919 0.480114 8.91354 0.444695 8.8901C0.413213 8.86665 0.397471 8.87057 0.393535 8.80805C0.389601 8.74943 0.385664 8.67128 0.354182 8.6283C0.318763 8.58139 0.303022 8.49543 0.299088 8.42901C0.295151 8.35868 0.271539 8.30005 0.267605 8.25316C0.259735 8.20236 0.247928 8.14375 0.240057 8.10468C0.22825 8.06561 0.188897 8.05387 0.196768 8.0148C0.204639 7.97572 0.208574 7.96791 0.204639 7.9171C0.196768 7.86631 0.173156 7.8585 0.181026 7.82332C0.192832 7.79206 0.188897 7.76861 0.184962 7.73735C0.177091 7.70609 0.16135 7.50291 0.145608 7.47165C0.125931 7.44039 0.102319 7.42084 0.0865778 7.35832C0.0669011 7.29188 0.0590303 7.25672 0.0432888 7.21373C0.0236121 7.17076 0.00393535 7.17076 0.0078707 7.12387C0.0118061 7.08088 0.0314829 7.07698 0.0275476 7.05743C0.0196768 7.03399 0 7.01836 0 6.9871C0.00393535 6.96365 0.0236121 6.94021 0.0314829 6.90895C0.043289 6.87377 0.0511596 6.80735 0.0787072 6.79954C0.102319 6.79172 0.114125 6.79954 0.145608 6.77217C0.177091 6.74091 0.173156 6.69011 0.204639 6.68621C0.240057 6.68229 0.295151 6.70184 0.3227 6.67839C0.350248 6.65495 0.33057 6.64322 0.369923 6.6354C0.409276 6.62759 0.448632 6.64322 0.464373 6.61977C0.480114 6.58851 0.464373 6.53772 0.476178 6.51428C0.487985 6.49083 0.464373 6.44784 0.480114 6.43613C0.495855 6.4244 0.515531 6.38922 0.499789 6.35014C0.480114 6.30717 0.440761 6.29936 0.421083 6.2681C0.405342 6.23684 0.389601 6.22902 0.401406 6.19776C0.413213 6.1665 0.432888 6.12351 0.432888 6.12351C0.432888 6.12351 0.417147 6.10006 0.456502 6.0688C0.499789 6.03754 0.50766 6.06489 0.503726 6.02191C0.499789 5.97503 0.484048 5.99847 0.464373 5.95158C0.444695 5.90469 0.401406 5.89688 0.448632 5.88514C0.495855 5.87733 0.495855 5.89296 0.511596 5.85388C0.523403 5.81873 0.519467 5.79918 0.55882 5.78747C0.60211 5.77965 0.606046 5.7601 0.625721 5.77965C0.645399 5.79918 0.65327 5.82654 0.684752 5.80699C0.7123 5.78747 0.716235 5.78747 0.747717 5.74447C0.779202 5.70148 0.771331 5.69758 0.802814 5.68585C0.83036 5.67022 0.850037 5.64677 0.850037 5.64677L0.873649 5.58036C0.873649 5.58036 0.909068 5.58817 0.944485 5.54128C0.979903 5.49048 0.98384 5.50221 1.02713 5.46313C1.06648 5.42404 1.07435 5.45922 1.07435 5.40059C1.07829 5.34199 1.07042 5.31463 1.08616 5.27166C1.09796 5.22477 1.12945 5.23648 1.12945 5.19351C1.12551 5.15443 1.15306 5.16614 1.12945 5.1427C1.10584 5.11925 1.10584 5.05673 1.10584 5.05673L1.16093 4.9903L1.23177 4.94732C1.23177 4.94732 1.3026 4.97077 1.33015 4.94341C1.3577 4.91606 1.39312 4.91215 1.39312 4.91215C1.39312 4.91215 1.42853 4.84963 1.46002 4.84181C1.4915 4.834 1.54659 4.81445 1.54659 4.81445C1.54659 4.81445 1.6135 4.75585 1.62924 4.74022C1.65285 4.72848 1.6804 4.6777 1.6804 4.6777C1.6804 4.6777 1.73549 4.65815 1.73156 4.61126C1.72762 4.56437 1.73549 4.52921 1.73549 4.52921L1.78272 4.47059L1.86536 4.38852L1.91652 4.29085L1.88897 4.2127C1.88897 4.2127 1.87323 4.13844 1.88897 4.12281C1.90471 4.10718 1.9362 4.09545 1.94407 4.10718C1.95587 4.115 1.95587 4.14626 1.97161 4.12281C1.99129 4.09937 1.97555 4.072 2.0149 4.072C2.05032 4.072 2.05032 4.08374 2.06606 4.09937C2.0818 4.11889 2.06213 4.15015 2.09361 4.13063C2.12509 4.11108 2.10542 4.07592 2.14083 4.07592C2.18019 4.07592 2.19987 4.09545 2.19987 4.09545C2.19987 4.09545 2.27463 4.10718 2.27857 4.06811C2.28645 4.03293 2.27463 3.96259 2.28645 3.93525C2.29825 3.90789 2.32579 3.86882 2.33761 3.84145C2.35333 3.81411 2.35333 3.79848 2.37695 3.78285C2.40057 3.77112 2.41237 3.75549 2.42419 3.72423C2.43599 3.69689 2.43599 3.65781 2.45961 3.64608C2.4832 3.63437 2.49107 3.63437 2.51862 3.62263C2.54618 3.607 2.55406 3.63045 2.5816 3.58356C2.60914 3.53275 2.6052 3.50149 2.6052 3.50149L2.65243 3.41163L2.69572 3.38037C2.69572 3.38037 2.68785 3.26704 2.7036 3.25141C2.72327 3.23968 2.78623 3.2436 2.78623 3.22797C2.78623 3.21234 2.7823 3.1459 2.7941 3.13027C2.81377 3.11856 2.84134 3.0873 2.86493 3.09901C2.88855 3.11074 2.91217 3.13419 2.94364 3.12245C2.97118 3.11074 2.96333 3.09511 2.983 3.07556C3.00268 3.05604 2.99088 3.03259 3.01055 3.00915C3.03022 2.9857 3.07746 3.00915 3.09318 2.9896C3.11287 2.97007 3.1168 2.97789 3.15221 2.93881C3.18371 2.89972 3.20338 2.86064 3.23487 2.86456C3.26634 2.86846 3.26241 2.86846 3.2939 2.88019C3.32537 2.888 3.34112 2.8919 3.38441 2.888C3.4277 2.88019 3.41195 2.85674 3.4395 2.85674C3.46311 2.85674 3.47099 2.87627 3.50248 2.87237C3.53395 2.86846 3.55362 2.86456 3.58118 2.80985C3.60873 2.76296 3.61265 2.74342 3.64414 2.72779C3.67561 2.71216 3.69923 2.70826 3.71103 2.66918C3.7189 2.63401 3.69531 2.62619 3.71498 2.60275C3.73072 2.57538 3.7189 2.56757 3.75827 2.54804C3.80156 2.5246 3.78189 2.54412 3.79761 2.5246C3.81335 2.50897 3.83305 2.47379 3.83305 2.47379L3.89601 2.4269C3.89601 2.4269 3.95504 2.4269 3.95504 2.39956C3.95504 2.37219 3.94717 2.33312 3.98259 2.34485C4.01406 2.35656 4.04947 2.37611 4.04947 2.37611C4.04947 2.37611 4.09276 2.39956 4.10458 2.41519C4.11638 2.4269 4.11246 2.46208 4.13605 2.45426C4.15967 2.44645 4.17542 2.43863 4.19509 2.44645C4.21476 2.45816 4.29346 2.43471 4.30528 2.45426C4.31316 2.47379 4.3407 2.48942 4.36825 2.48552C4.39974 2.4816 4.43515 2.50115 4.43515 2.50115L4.4745 2.54804C4.4745 2.54804 4.5296 2.53241 4.54928 2.54412C4.56107 2.55586 4.57682 2.57538 4.58862 2.59493C4.60436 2.61446 4.59649 2.63401 4.59649 2.63401C4.59649 2.63401 4.56502 2.64964 4.59257 2.677C4.62011 2.70434 4.66732 2.70826 4.66732 2.70826C4.66732 2.70826 4.71849 2.67308 4.72636 2.70044C4.73423 2.72389 4.73818 2.74733 4.76572 2.75905C4.79327 2.77078 4.80901 2.74733 4.81689 2.77078C4.82474 2.79422 4.80114 2.80594 4.84443 2.80594C4.88377 2.80594 4.92706 2.79031 4.94281 2.79422C4.95855 2.79812 4.95068 2.79812 4.95068 2.79812C4.97035 2.81375 4.99004 2.82938 4.99004 2.86456C4.99004 2.89582 4.99789 2.91926 5.01364 2.95444C5.03331 2.9896 5.0648 3.05212 5.08447 3.06775C5.10809 3.08338 5.13564 3.09119 5.14351 3.09901C5.15138 3.11074 5.15138 3.13808 5.15138 3.13808C5.15138 3.13808 5.20647 3.13027 5.22616 3.13419C5.24583 3.13808 5.26945 3.1459 5.26945 3.16545C5.26945 3.18108 5.2655 3.22015 5.2773 3.22405C5.28912 3.22405 5.297 3.21623 5.30487 3.23186C5.31274 3.24751 5.30487 3.27096 5.32846 3.28267C5.34816 3.2983 5.3757 3.32566 5.3875 3.32566C5.40324 3.32566 5.44653 3.32175 5.45441 3.32175C5.46621 3.32175 5.48588 3.32175 5.48195 3.33348C5.48195 3.34519 5.48195 3.35692 5.49375 3.37645C5.50557 3.39208 5.53311 3.42334 5.54886 3.43116C5.56066 3.43507 5.5764 3.44679 5.5764 3.44679V3.48196C5.5764 3.48196 5.61575 3.46633 5.61969 3.47804C5.62362 3.48978 5.62362 3.53275 5.63544 3.54838C5.65116 3.56011 5.66691 3.59137 5.69445 3.607C5.72202 3.62263 5.73774 3.62263 5.74561 3.64218C5.74956 3.66171 5.74956 3.67344 5.76136 3.69689C5.76923 3.71641 5.78498 3.75549 5.80072 3.78285C5.81645 3.81411 5.85974 3.84927 5.86761 3.84927C5.87943 3.85319 5.90303 3.84145 5.90303 3.861C5.90303 3.88055 5.90303 3.91571 5.9109 3.93134C5.91877 3.94697 5.95026 3.98604 5.96993 4.00948C5.9896 4.02903 6.04077 4.05248 6.05259 4.072C6.06439 4.09155 6.07226 4.115 6.08013 4.15407C6.09193 4.18925 6.10768 4.20878 6.12342 4.24004C6.13522 4.2674 6.16276 4.31037 6.18638 4.31819C6.21 4.326 6.2218 4.32211 6.22575 4.34555C6.22967 4.37289 6.22967 4.40025 6.22967 4.40025C6.22967 4.40025 6.24542 4.40415 6.24934 4.43541C6.25721 4.46667 6.25329 4.50575 6.28476 4.51356C6.31625 4.52529 6.34379 4.51748 6.34774 4.53703C6.35167 4.55266 6.35167 4.61907 6.37528 4.64252" fill="#0085D0"/>
<path d="M16.7883 2.41132C16.8119 2.41132 16.8394 2.41913 16.8394 2.41913C16.8394 2.41913 16.867 2.44649 16.8788 2.44649C16.8866 2.44649 16.9024 2.47775 16.8984 2.49338C16.8906 2.50901 16.867 2.50901 16.8355 2.50901C16.804 2.50901 16.7607 2.51683 16.741 2.51683C16.7214 2.51683 16.7096 2.51291 16.7174 2.49338C16.7292 2.47384 16.741 2.47775 16.7371 2.46212C16.7332 2.44649 16.7371 2.42695 16.7528 2.42305C16.7686 2.41523 16.7764 2.41132 16.7883 2.41132Z" fill="#0085D0"/>
<path d="M16.6387 2.54419C16.6545 2.54419 16.6663 2.5559 16.6663 2.55982C16.6663 2.56763 16.6978 2.552 16.7017 2.56763C16.7056 2.58326 16.7135 2.61061 16.7056 2.61842C16.6978 2.63015 16.6978 2.63405 16.6899 2.64578C16.6781 2.66141 16.6663 2.67313 16.6584 2.68094C16.6505 2.69267 16.6269 2.70439 16.6191 2.71612C16.6112 2.72783 16.5836 2.75128 16.5797 2.76301C16.5758 2.77472 16.5915 2.79035 16.564 2.79427C16.5364 2.79427 16.5167 2.79035 16.501 2.80208C16.4892 2.8099 16.4774 2.8138 16.4735 2.82943C16.4695 2.84508 16.4892 2.88023 16.4656 2.88415C16.442 2.88415 16.4262 2.89978 16.4183 2.88023C16.4105 2.86071 16.3908 2.84508 16.4026 2.83334C16.4144 2.82553 16.4144 2.82161 16.4262 2.8099C16.438 2.79817 16.4616 2.79817 16.4656 2.78645C16.4735 2.77472 16.4892 2.77472 16.501 2.76301C16.5167 2.75519 16.5167 2.73175 16.5325 2.72783C16.5482 2.72393 16.5561 2.72002 16.5679 2.70439C16.5797 2.68876 16.5915 2.70049 16.5955 2.66923C16.5994 2.63797 16.6073 2.61842 16.6151 2.60279C16.6269 2.58716 16.6269 2.59498 16.6269 2.56763C16.623 2.54419 16.623 2.54419 16.6387 2.54419Z" fill="#0085D0"/>
<path d="M16.4182 2.70044C16.4104 2.70044 16.4143 2.71212 16.4025 2.71991C16.3907 2.73161 16.379 2.7355 16.3868 2.7472C16.3907 2.75499 16.4104 2.75108 16.4104 2.75888C16.4143 2.76279 16.4104 2.77837 16.4261 2.77837C16.4418 2.77837 16.4418 2.77446 16.4457 2.75499C16.4496 2.7355 16.4535 2.73941 16.4378 2.71991C16.43 2.70433 16.4339 2.70044 16.4182 2.70044Z" fill="#0085D0"/>
<path d="M16.2924 2.80988C16.3042 2.8138 16.3199 2.78644 16.3317 2.79817C16.3435 2.8138 16.3475 2.83725 16.3475 2.84896C16.3475 2.86069 16.3514 2.86459 16.3435 2.88022C16.3357 2.89585 16.3317 2.90758 16.3238 2.92321C16.316 2.93884 16.3238 2.95837 16.312 2.96229C16.3042 2.9701 16.312 2.99355 16.3002 3.00528C16.2884 3.01699 16.2884 3.01699 16.2766 3.03262C16.2687 3.04825 16.2451 3.0678 16.2412 3.07951C16.2373 3.09125 16.2294 3.09514 16.2137 3.11077C16.1979 3.12251 16.194 3.12251 16.19 3.13814C16.1822 3.15377 16.1782 3.1694 16.1546 3.16548C16.131 3.16158 16.1153 3.13032 16.1231 3.12251C16.131 3.11469 16.1586 3.11077 16.1664 3.09906C16.1743 3.08733 16.19 3.0678 16.2058 3.05217C16.2255 3.03262 16.2294 3.00528 16.2373 2.98965C16.2491 2.97402 16.2491 2.9701 16.2569 2.94274C16.2648 2.9154 16.2609 2.91148 16.2648 2.88803C16.2687 2.86069 16.2727 2.85288 16.2727 2.83333C16.2727 2.8177 16.2727 2.80988 16.2924 2.80988Z" fill="#0085D0"/>
<path d="M16.1113 2.98962C16.1192 2.98962 16.1271 2.99744 16.131 3.00917C16.135 3.02088 16.135 3.03262 16.1271 3.04043C16.1153 3.04433 16.1035 3.04043 16.1074 3.0287C16.1074 3.01307 16.0956 2.99354 16.1113 2.98962Z" fill="#0085D0"/>
<path d="M16.0566 3.0835C16.0606 3.08749 16.0606 3.09939 16.0606 3.10734C16.0606 3.11927 16.0486 3.13117 16.0446 3.11927C16.0366 3.10734 16.0366 3.07954 16.0486 3.07954C16.0486 3.07556 16.0486 3.07159 16.0566 3.0835Z" fill="#0085D0"/>
<path d="M16.0169 3.20845C16.0169 3.20845 16.0327 3.18109 16.0327 3.1889C16.0366 3.19672 16.0366 3.20845 16.0445 3.20845C16.0523 3.20845 16.0641 3.22798 16.0602 3.23579C16.0563 3.24753 16.0405 3.25142 16.0366 3.25924C16.0327 3.26316 16.013 3.26705 16.0051 3.27879C15.9972 3.2905 15.9815 3.31394 15.9815 3.32568C15.9815 3.33349 15.9815 3.34912 15.9697 3.34912C15.9579 3.35304 15.9303 3.35304 15.9225 3.36085C15.9185 3.36867 15.9225 3.3843 15.9146 3.39993C15.9067 3.41556 15.9146 3.43509 15.8949 3.439C15.8792 3.4429 15.8595 3.45853 15.8516 3.439C15.8437 3.42337 15.8359 3.41164 15.8477 3.40774C15.8634 3.39993 15.8477 3.39993 15.8634 3.38038C15.8831 3.36085 15.9028 3.38038 15.9028 3.36085C15.9028 3.33741 15.9185 3.32959 15.9264 3.31396C15.9343 3.29831 15.95 3.29442 15.9618 3.27487C15.9736 3.25534 15.9776 3.25142 15.9854 3.23971C15.9972 3.22408 16.013 3.22798 16.0169 3.20845Z" fill="#0085D0"/>
<path d="M15.6156 3.56404C15.6156 3.56404 15.6314 3.55229 15.6432 3.56013C15.6551 3.56797 15.6472 3.57971 15.659 3.57971C15.6708 3.57971 15.6866 3.59148 15.6787 3.60322C15.6708 3.61106 15.663 3.61499 15.659 3.63457C15.6551 3.65024 15.6432 3.65808 15.6353 3.66201C15.6274 3.66591 15.5919 3.68552 15.584 3.66984C15.5762 3.65417 15.5762 3.64633 15.584 3.6385C15.5919 3.62673 15.6038 3.61889 15.6038 3.60715C15.5998 3.58755 15.5998 3.56797 15.6156 3.56404Z" fill="#0085D0"/>
<path d="M16.005 3.64221C15.9972 3.64613 16.005 3.66176 15.9932 3.66565C15.9854 3.66957 15.9775 3.67347 15.9814 3.6891C15.9814 3.70473 15.9775 3.71254 15.9775 3.72817C15.9775 3.73991 15.9854 3.75554 15.9696 3.76335C15.9539 3.77117 15.9421 3.7829 15.9224 3.7829C15.9067 3.7829 15.887 3.7829 15.883 3.79461C15.8791 3.80634 15.8673 3.82587 15.8594 3.83368C15.8476 3.8415 15.8358 3.84931 15.8358 3.86494C15.8358 3.88057 15.828 3.90794 15.8437 3.91575C15.8555 3.92357 15.8673 3.94701 15.8791 3.94309C15.8949 3.9392 15.9106 3.93138 15.9185 3.91965C15.9224 3.90794 15.946 3.92746 15.9578 3.91183C15.9657 3.8962 15.9578 3.88057 15.9736 3.86494C15.9854 3.84542 15.9854 3.82979 15.9932 3.81416C16.0011 3.79853 15.9932 3.77116 16.0011 3.75554C16.0129 3.73209 16.005 3.73209 16.0208 3.71254C16.0405 3.6891 16.0287 3.68128 16.0365 3.67347C16.0483 3.66565 16.0601 3.65784 16.0483 3.65002C16.0365 3.64613 16.0247 3.66565 16.0247 3.64613C16.0208 3.63439 16.0129 3.63831 16.005 3.64221Z" fill="#0085D0"/>
<path d="M16.1468 3.5367C16.1586 3.52496 16.1743 3.52496 16.1822 3.52496C16.194 3.52496 16.2018 3.54062 16.2058 3.55233C16.2097 3.56406 16.2136 3.57969 16.2058 3.5914C16.1979 3.60703 16.1822 3.60314 16.1782 3.62266C16.1743 3.63829 16.1782 3.66566 16.1782 3.68129C16.1743 3.69692 16.1743 3.71255 16.1625 3.71644C16.1507 3.72036 16.1546 3.74381 16.1389 3.73989C16.1231 3.73207 16.131 3.71644 16.1153 3.71255C16.0995 3.70473 16.0917 3.67737 16.1035 3.66174C16.1192 3.65003 16.1192 3.63829 16.1231 3.61877C16.1231 3.59532 16.131 3.58751 16.1349 3.57188C16.1468 3.56406 16.131 3.54451 16.1468 3.5367Z" fill="#0085D0"/>
<path d="M16.3239 3.41974C16.3239 3.41974 16.3318 3.40794 16.3397 3.39222C16.3436 3.37651 16.3555 3.35293 16.3713 3.36865C16.3872 3.38045 16.3872 3.39616 16.3832 3.41188C16.3832 3.4276 16.3713 3.4276 16.3674 3.43937C16.3634 3.45117 16.3634 3.46689 16.3436 3.45903C16.3239 3.44723 16.3278 3.43151 16.3239 3.41974Z" fill="#0085D0"/>
<path d="M15.6154 4.00563C15.6233 4.00563 15.6391 3.99389 15.6509 3.99781C15.6666 3.99781 15.6863 4.01734 15.6784 4.02907C15.6745 4.04078 15.6587 4.03688 15.6587 4.0447C15.6587 4.05251 15.6666 4.07596 15.6509 4.07986C15.6391 4.08377 15.6233 4.08377 15.6233 4.09159C15.6233 4.0994 15.6076 4.11503 15.6076 4.12285C15.6076 4.13456 15.5997 4.15801 15.6154 4.15801C15.6272 4.15801 15.6469 4.17364 15.6351 4.17364C15.6194 4.17755 15.6076 4.17755 15.5997 4.1971C15.5958 4.21273 15.5682 4.23618 15.5643 4.22055C15.5603 4.2049 15.5485 4.2049 15.5446 4.18145C15.5367 4.15801 15.5249 4.13066 15.5367 4.12285C15.5485 4.11112 15.5485 4.11112 15.5564 4.09159C15.5643 4.06814 15.5603 4.05251 15.5721 4.0447C15.58 4.03688 15.5958 4.06423 15.6036 4.03688C15.6154 4.00952 15.5997 4.00952 15.6154 4.00563Z" fill="#0085D0"/>
<path d="M15.4544 4.22836C15.4465 4.23619 15.4544 4.25577 15.4465 4.25187C15.4346 4.25187 15.407 4.2401 15.3952 4.25187C15.3794 4.2597 15.3675 4.26361 15.3715 4.27928C15.3754 4.29496 15.3715 4.31847 15.3873 4.31063C15.4031 4.30672 15.4109 4.29889 15.4188 4.30672C15.4228 4.31456 15.4149 4.33414 15.4228 4.34198C15.4267 4.34591 15.4386 4.33414 15.4425 4.34591C15.4465 4.35374 15.4425 4.36942 15.4583 4.36551C15.4741 4.35767 15.478 4.36158 15.482 4.34198C15.482 4.3263 15.4899 4.3263 15.4938 4.31063C15.4978 4.29496 15.4859 4.26361 15.4938 4.2597C15.5057 4.25577 15.5175 4.25577 15.5096 4.24794C15.5017 4.23619 15.482 4.25187 15.482 4.23619C15.482 4.22443 15.4701 4.21659 15.4544 4.22836Z" fill="#0085D0"/>
<path d="M15.1001 4.38494C15.1083 4.37684 15.1205 4.37684 15.1328 4.37684C15.1369 4.37277 15.145 4.38494 15.1369 4.39707C15.1287 4.40114 15.1124 4.41328 15.1042 4.40924C15.0961 4.39707 15.092 4.39304 15.1001 4.38494Z" fill="#0085D0"/>
<path d="M15.0884 4.45501C15.0884 4.45892 15.0923 4.47852 15.0805 4.47852C15.0686 4.47852 15.0647 4.48636 15.0647 4.49811C15.0647 4.50987 15.0686 4.52554 15.0568 4.52162C15.041 4.52162 15.0252 4.52162 15.0213 4.52945C15.0173 4.53729 15.0173 4.54513 15.0094 4.54905C14.9976 4.55296 14.9937 4.5608 14.9937 4.57647C14.9937 4.59215 15.0134 4.58824 15.0134 4.59215C15.0134 4.59607 15.0094 4.59998 15.0213 4.60391C15.0331 4.60782 15.0568 4.61566 15.0647 4.61175C15.0726 4.60782 15.0805 4.59998 15.0844 4.58824C15.0884 4.5804 15.0963 4.57256 15.0963 4.56864C15.0963 4.56473 15.1081 4.5608 15.1081 4.55296C15.1121 4.54513 15.1081 4.52554 15.1121 4.51771C15.1199 4.51378 15.1318 4.51378 15.1318 4.50203C15.1318 4.49027 15.1318 4.46676 15.1239 4.46676C15.116 4.46285 15.1081 4.46285 15.1042 4.45892C15.1042 4.46676 15.1081 4.44718 15.0884 4.45501Z" fill="#0085D0"/>
<path d="M15.0881 4.61901C15.0881 4.61128 15.092 4.60742 15.0998 4.60742C15.1077 4.60742 15.1077 4.61901 15.1038 4.62289C15.0998 4.63062 15.092 4.63062 15.0842 4.62674C15.0803 4.63062 15.0881 4.61901 15.0881 4.61901Z" fill="#0085D0"/>
<path d="M14.9504 4.63082C14.9582 4.62299 14.9661 4.61909 14.9661 4.61909C14.9661 4.61909 14.9976 4.61517 15.0015 4.61517C15.0094 4.61517 15.0212 4.6152 15.0212 4.61909C15.0212 4.62691 15.0291 4.64645 15.0291 4.65035C15.0291 4.65817 15.0369 4.67771 15.0251 4.67771C15.0133 4.6738 15.0015 4.6699 14.9976 4.68161C14.9976 4.69334 14.9897 4.70506 14.9818 4.70897C14.974 4.71287 14.9582 4.71679 14.9543 4.72069C14.9504 4.7285 14.9543 4.73242 14.9464 4.74023C14.9425 4.74805 14.9346 4.75195 14.9307 4.75586C14.9228 4.76368 14.9228 4.77931 14.9228 4.78712C14.9228 4.79494 14.9425 4.79102 14.9464 4.79494C14.9504 4.79884 14.9543 4.8262 14.9543 4.8301C14.9504 4.83791 14.9464 4.84183 14.9425 4.85354C14.9346 4.86136 14.915 4.86917 14.9071 4.86917C14.9031 4.86917 14.8913 4.86917 14.8874 4.87699C14.8835 4.8848 14.8795 4.90435 14.8795 4.90825C14.8795 4.91216 14.8795 4.92779 14.8756 4.93169C14.8717 4.93561 14.8756 4.95516 14.848 4.95124C14.8205 4.94734 14.8048 4.94342 14.7969 4.95124C14.789 4.95905 14.8008 4.97079 14.8008 4.9786C14.8008 4.99031 14.7969 5.00594 14.7969 5.01768C14.7969 5.02939 14.8008 5.04112 14.793 5.04112C14.7851 5.04112 14.7772 5.05283 14.7733 5.05283C14.7693 5.05675 14.7536 5.06457 14.7497 5.06065C14.7418 5.05675 14.7457 5.04112 14.7339 5.04112C14.7221 5.04112 14.6985 5.04894 14.6985 5.04112C14.6985 5.03331 14.6788 5.01768 14.6788 5.01768C14.6788 5.01768 14.671 5.02157 14.667 5.00594C14.6591 4.99031 14.6513 4.98642 14.6591 4.97079C14.667 4.95905 14.6749 4.96297 14.6749 4.95124C14.6788 4.94342 14.6749 4.93171 14.6788 4.91998C14.6867 4.91216 14.6867 4.89653 14.6946 4.88872C14.7064 4.8809 14.6985 4.86917 14.7143 4.86917C14.73 4.86917 14.7339 4.83791 14.7418 4.84183C14.7536 4.84183 14.7575 4.86136 14.7693 4.86136C14.7811 4.85746 14.7811 4.86136 14.793 4.84964C14.8008 4.84183 14.8087 4.84183 14.8205 4.82228C14.8323 4.80665 14.8323 4.80665 14.8362 4.79494C14.8441 4.78321 14.8441 4.77149 14.852 4.75976C14.8638 4.74805 14.8874 4.74805 14.8913 4.74805C14.8953 4.74805 14.911 4.74805 14.9071 4.73242C14.9031 4.72069 14.8953 4.68161 14.8992 4.6738C14.911 4.66598 14.911 4.66598 14.9189 4.65035C14.9268 4.64254 14.9307 4.62301 14.9386 4.61909C14.9464 4.63472 14.9425 4.63472 14.9504 4.63082Z" fill="#0085D0"/>
<path d="M15.0332 4.10335C15.0372 4.09943 15.0569 4.09157 15.0609 4.09549C15.0728 4.09549 15.0728 4.10729 15.0728 4.11906C15.0767 4.13086 15.0609 4.13086 15.0569 4.13872C15.053 4.14658 15.053 4.15835 15.0451 4.15444C15.0372 4.1505 15.0292 4.14264 15.0253 4.12692C15.0253 4.11906 15.0253 4.10729 15.0332 4.10335Z" fill="#0085D0"/>
<path d="M14.0139 5.22101C14.0258 5.21709 14.0219 5.18958 14.0377 5.18958C14.0575 5.19352 14.0733 5.18566 14.0733 5.19743C14.0773 5.20923 14.0693 5.23281 14.0654 5.24458C14.0575 5.25638 14.0614 5.2721 14.0416 5.2721C14.0219 5.2721 14.0139 5.24852 14.0021 5.24852C13.9942 5.24852 13.9744 5.24852 13.9862 5.23673C13.9981 5.22887 14.006 5.22101 14.0139 5.22101Z" fill="#0085D0"/>
<path d="M14.3208 5.22488C14.3247 5.22488 14.3208 5.20921 14.3445 5.20137C14.3642 5.19744 14.3918 5.18177 14.3958 5.19744C14.3997 5.21311 14.4234 5.21704 14.4155 5.22488C14.4076 5.23272 14.3918 5.24448 14.3918 5.24448C14.3918 5.24448 14.3603 5.25232 14.3524 5.25623C14.3405 5.26016 14.3484 5.27583 14.3287 5.27583C14.3129 5.27583 14.2971 5.27583 14.2971 5.26016C14.2971 5.24448 14.309 5.24448 14.3129 5.24055C14.3208 5.24055 14.309 5.22488 14.3208 5.22488Z" fill="#0085D0"/>
<path d="M14.2892 5.32635C14.2892 5.32635 14.3325 5.31853 14.3404 5.31464C14.3522 5.31464 14.364 5.32245 14.364 5.33808C14.36 5.35371 14.3561 5.35761 14.3443 5.36934C14.3325 5.38105 14.3207 5.37324 14.3207 5.39279C14.3246 5.41623 14.301 5.42796 14.301 5.43968C14.301 5.44749 14.2853 5.48657 14.2853 5.4983C14.2813 5.51001 14.2695 5.53346 14.2695 5.54127C14.2695 5.54908 14.2538 5.5569 14.2262 5.56082C14.1948 5.56082 14.1987 5.56471 14.1751 5.57645C14.1515 5.58816 14.1278 5.62334 14.1121 5.63505C14.0964 5.64678 14.0924 5.66631 14.0924 5.67804C14.0924 5.69367 14.0924 5.69757 14.0885 5.7093C14.0767 5.71712 14.057 5.72104 14.0452 5.72885C14.0295 5.73275 14.0216 5.73667 14.0098 5.74448C14.0019 5.7523 14.0058 5.77574 13.9901 5.77964C13.9704 5.78745 13.9193 5.79919 13.9193 5.79919C13.9193 5.79919 13.8799 5.82263 13.8721 5.83434C13.8642 5.84997 13.8524 5.87734 13.8484 5.89297C13.8445 5.9086 13.8366 5.91249 13.8327 5.93204C13.8288 5.95157 13.813 5.97111 13.813 5.97893C13.8091 5.99064 13.7894 6.00627 13.7855 6.018C13.7816 6.02974 13.7579 6.04926 13.7501 6.04145C13.7422 6.03363 13.7264 6.00629 13.7383 5.99456C13.7501 5.98283 13.7579 5.98283 13.7619 5.95549C13.7658 5.92423 13.7816 5.89686 13.7816 5.87734C13.7855 5.85389 13.7697 5.83826 13.7933 5.81871C13.813 5.79527 13.8209 5.77964 13.8327 5.77182C13.8406 5.76011 13.876 5.75619 13.8799 5.72885C13.8799 5.70538 13.8878 5.69757 13.9035 5.67412C13.9193 5.64678 13.9153 5.63115 13.9468 5.62723C13.9783 5.61942 14.0295 5.64678 14.0295 5.61942C14.0295 5.59208 14.0373 5.58034 14.0452 5.56863C14.0531 5.5569 14.0649 5.54127 14.0649 5.52564C14.0649 5.51001 14.0728 5.48267 14.1003 5.48657C14.1239 5.49048 14.1475 5.51001 14.1593 5.50611C14.1751 5.5022 14.1672 5.48657 14.183 5.48657C14.1987 5.48657 14.242 5.46312 14.2459 5.45141C14.2498 5.43578 14.2538 5.43578 14.2538 5.41233C14.2538 5.38497 14.2459 5.38497 14.2656 5.36934C14.2774 5.34979 14.2774 5.33416 14.2892 5.32635Z" fill="#0085D0"/>
<path d="M13.6838 5.89301C13.692 5.89301 13.692 5.90517 13.696 5.91731C13.696 5.92947 13.7001 5.94567 13.6879 5.93757C13.6756 5.93351 13.6675 5.92541 13.6675 5.90921C13.6715 5.89301 13.6756 5.89301 13.6838 5.89301Z" fill="#0085D0"/>
<path d="M13.3961 5.81486C13.3881 5.81486 13.3723 5.83057 13.3723 5.83843C13.3723 5.84629 13.3723 5.8738 13.3842 5.88952C13.3961 5.90524 13.4 5.9013 13.4119 5.88952C13.4198 5.87772 13.4158 5.85809 13.4238 5.85415C13.4317 5.84629 13.4396 5.85415 13.4357 5.83057C13.4317 5.807 13.4079 5.81094 13.3961 5.81486Z" fill="#0085D0"/>
<path d="M13.455 5.9946C13.4511 6.00242 13.4629 6.02194 13.455 6.02976C13.4471 6.04149 13.4511 6.07275 13.4353 6.07275C13.4156 6.07275 13.4078 6.07275 13.4038 6.08448C13.3999 6.10011 13.392 6.10401 13.3841 6.11574C13.3802 6.12746 13.3605 6.12356 13.3684 6.13527C13.3763 6.147 13.4038 6.15482 13.4117 6.15872C13.4156 6.15872 13.4196 6.13137 13.4314 6.13137C13.4471 6.13137 13.455 6.1509 13.455 6.16263C13.455 6.17435 13.4589 6.18998 13.4511 6.20561C13.4432 6.21734 13.4274 6.22905 13.4235 6.22905C13.4196 6.22905 13.4156 6.2486 13.4196 6.25641C13.4235 6.26423 13.4393 6.26423 13.4511 6.26423C13.4629 6.26423 13.4707 6.26423 13.4825 6.2486C13.4943 6.24078 13.5219 6.22905 13.5219 6.21342C13.5219 6.19779 13.514 6.12356 13.514 6.0962C13.514 6.06494 13.5101 5.9985 13.5101 5.98287C13.5101 5.96724 13.4904 5.95942 13.4786 5.96724C13.4668 5.98287 13.4589 5.98679 13.455 5.9946Z" fill="#0085D0"/>
<path d="M13.3291 6.17038C13.3291 6.15867 13.3527 6.14694 13.3566 6.15867C13.3684 6.17038 13.3527 6.19383 13.3527 6.19383C13.3527 6.19383 13.337 6.21337 13.333 6.19774C13.333 6.18993 13.3252 6.1782 13.3291 6.17038Z" fill="#0085D0"/>
<path d="M13.3725 6.31508C13.3685 6.31508 13.3606 6.32682 13.3527 6.32682C13.3409 6.32682 13.3291 6.33075 13.3291 6.3425C13.333 6.35426 13.337 6.37384 13.3291 6.37384C13.3212 6.37384 13.3054 6.40128 13.3093 6.40912C13.3133 6.41696 13.3291 6.43654 13.337 6.43654C13.3449 6.43263 13.3606 6.43263 13.3685 6.4287C13.3764 6.42479 13.3804 6.40912 13.3883 6.40519C13.3962 6.40128 13.4198 6.38952 13.4238 6.38168C13.4277 6.37384 13.4435 6.36601 13.4435 6.35426C13.4435 6.3425 13.4356 6.31899 13.4277 6.31115C13.4159 6.30724 13.3843 6.31508 13.3725 6.31508Z" fill="#0085D0"/>
<path d="M12.7743 6.67446C12.7862 6.67055 12.7862 6.67838 12.7941 6.69406C12.8059 6.70973 12.8059 6.72541 12.8098 6.73717C12.8098 6.74892 12.8138 6.77636 12.8098 6.78419C12.8059 6.79203 12.7743 6.79203 12.7743 6.78419C12.7743 6.77636 12.7507 6.77635 12.7546 6.76459C12.7546 6.75284 12.7664 6.74892 12.7704 6.73717C12.7743 6.72541 12.7586 6.68229 12.7743 6.67446Z" fill="#0085D0"/>
<path d="M13.1322 6.67523C13.1282 6.66717 13.1485 6.65106 13.1566 6.65106C13.1647 6.65106 13.1728 6.65912 13.1728 6.67121C13.1688 6.67927 13.1363 6.69538 13.1322 6.67523Z" fill="#0085D0"/>
<path d="M11.4598 8.3274C11.444 8.3274 11.4558 8.35098 11.4598 8.38241C11.4637 8.41385 11.4558 8.43348 11.4717 8.42956C11.4835 8.41776 11.4717 8.39027 11.4835 8.39027C11.4914 8.38633 11.5073 8.36276 11.4914 8.35884C11.4835 8.35098 11.4756 8.34704 11.4756 8.33526C11.4796 8.31955 11.4835 8.3274 11.4598 8.3274Z" fill="#0085D0"/>
<path d="M12.4869 7.08089C12.4987 7.08478 12.5105 7.11215 12.5184 7.11606C12.5223 7.12388 12.5577 7.14341 12.5656 7.13559C12.5774 7.12778 12.5971 7.12778 12.601 7.13951C12.6049 7.14732 12.5971 7.17858 12.5852 7.1864C12.5734 7.19421 12.5616 7.21766 12.5577 7.23329C12.5577 7.25281 12.542 7.27236 12.5341 7.27236C12.5262 7.27236 12.5026 7.26063 12.4947 7.26063C12.4869 7.26063 12.4633 7.26063 12.4633 7.26844C12.4672 7.27626 12.4711 7.33096 12.4514 7.33488C12.4357 7.3427 12.42 7.35833 12.4082 7.36614C12.3964 7.37785 12.3688 7.38177 12.3649 7.38959C12.3649 7.39348 12.3609 7.42866 12.3491 7.42477C12.3373 7.42085 12.3255 7.41695 12.3177 7.40914C12.3137 7.4013 12.2862 7.37396 12.2822 7.37396C12.2783 7.37396 12.235 7.38567 12.2271 7.37785C12.2232 7.37004 12.2075 7.35833 12.1957 7.35051C12.1839 7.3427 12.1642 7.31144 12.1681 7.29581C12.1721 7.28018 12.1878 7.25673 12.1957 7.25673C12.2035 7.25673 12.2035 7.28407 12.2075 7.29189C12.2114 7.2997 12.2271 7.32707 12.235 7.32707C12.2429 7.32707 12.2665 7.32707 12.2704 7.32707C12.2704 7.31925 12.2744 7.30752 12.2822 7.30752C12.2901 7.30752 12.3059 7.31925 12.3098 7.32315C12.3177 7.32707 12.3452 7.35833 12.3452 7.33488C12.3452 7.31144 12.3413 7.28799 12.3452 7.28407C12.3531 7.28018 12.3649 7.24892 12.3688 7.23718C12.3727 7.22547 12.357 7.20592 12.3688 7.1864C12.3767 7.17077 12.3924 7.15122 12.4042 7.14732C12.4121 7.13951 12.4003 7.11996 12.42 7.11606C12.4396 7.11215 12.4633 7.11214 12.4593 7.10043C12.4633 7.10043 12.4672 7.07697 12.4869 7.08089Z" fill="#0085D0"/>
<path d="M12.2351 7.47561C12.239 7.47169 12.2587 7.45996 12.2666 7.47169C12.2705 7.48732 12.2666 7.49906 12.2705 7.50687C12.2705 7.51469 12.2784 7.53813 12.2705 7.54984C12.2626 7.56158 12.2587 7.5811 12.2548 7.58892C12.2469 7.59673 12.2193 7.61628 12.2075 7.61628C12.1957 7.61628 12.18 7.62799 12.1642 7.63581C12.1485 7.64362 12.1367 7.65144 12.1367 7.66707C12.1367 7.6827 12.1328 7.70225 12.1249 7.70614C12.1209 7.71006 12.1091 7.74522 12.1091 7.75303C12.1091 7.75695 12.0973 7.77258 12.0895 7.7804C12.0855 7.78821 12.0777 7.80384 12.0659 7.80776C12.0541 7.81166 12.0265 7.82729 12.0226 7.8351C12.0186 7.84292 12.0068 7.85465 11.9793 7.85073C11.9557 7.84684 11.936 7.85465 11.936 7.85855C11.9321 7.86636 11.9163 7.88591 11.9006 7.88981C11.8888 7.88981 11.8612 7.89372 11.8573 7.90154C11.8534 7.90544 11.8376 7.9328 11.8337 7.94843C11.8297 7.96406 11.8297 7.97577 11.8219 7.9875C11.814 7.99532 11.8061 8.00703 11.7904 8.00703C11.7746 8.00313 11.751 8.02266 11.7471 8.03048C11.7432 8.03829 11.751 8.05392 11.7392 8.06565C11.7274 8.07347 11.7274 8.09691 11.7274 8.09691L11.7353 8.13991C11.7353 8.13991 11.755 8.19069 11.7432 8.19851C11.7314 8.20632 11.7156 8.22195 11.7156 8.22195L11.6763 8.19069V8.15554L11.6999 8.11646L11.6763 8.07737C11.6763 8.07737 11.6802 8.04611 11.692 8.03048C11.7077 8.01876 11.7235 7.99532 11.7235 7.99532C11.7235 7.99532 11.7471 7.9367 11.7668 7.9367C11.7864 7.9328 11.7864 7.92498 11.8022 7.91325C11.8179 7.90154 11.8219 7.87028 11.8376 7.85073C11.8494 7.83121 11.8612 7.84683 11.8809 7.82339C11.8966 7.80384 11.8888 7.75303 11.8966 7.7374C11.9124 7.72177 11.9439 7.72569 11.9557 7.71788C11.9635 7.70614 11.9714 7.69443 11.9753 7.66317C11.9832 7.63191 12.0068 7.6241 12.0186 7.61628C12.0304 7.60847 12.0344 7.60455 12.0541 7.58502C12.0737 7.56547 12.0659 7.53032 12.0855 7.5264C12.1013 7.5225 12.1642 7.51858 12.18 7.51469C12.1918 7.51077 12.2154 7.5225 12.2233 7.50295C12.2272 7.49124 12.2311 7.48732 12.2351 7.47561Z" fill="#0085D0"/>
<path d="M10.901 8.86686C10.909 8.85506 10.9327 8.84328 10.9446 8.8472C10.9525 8.8472 10.9723 8.85506 10.9723 8.86292C10.9723 8.87472 10.9643 8.88258 10.9604 8.89435C10.9564 8.90615 10.9485 8.91793 10.9446 8.92579C10.9367 8.93365 10.9248 8.94936 10.9169 8.94544C10.905 8.9415 10.8813 8.92973 10.8852 8.91007C10.8892 8.89044 10.8971 8.87078 10.901 8.86686Z" fill="#0085D0"/>
<path d="M10.8812 9.02687C10.8852 9.02299 10.9048 9.02687 10.9048 9.02687L10.893 9.05416C10.893 9.05416 10.8891 9.07754 10.8852 9.08533C10.8812 9.09313 10.8499 9.1126 10.8499 9.08922C10.8499 9.06584 10.8499 9.06195 10.8577 9.05025C10.8695 9.03857 10.8656 9.03078 10.8812 9.02687Z" fill="#0085D0"/>
<path d="M12.0108 7.71393C12.0147 7.70612 12.0462 7.70612 12.0462 7.70612C12.0462 7.70612 12.0541 7.72956 12.0462 7.74129C12.0422 7.75301 12.0186 7.76474 12.0147 7.74911C12.0068 7.73348 12.0068 7.71785 12.0108 7.71393Z" fill="#0085D0"/>
<path d="M4.50989 21.672H11.4833V15.0681H4.50989V21.672ZM7.99267 20.5739C6.76484 20.5739 5.77706 19.5892 5.77706 18.3701C5.77706 17.1509 6.76092 16.1662 7.99267 16.1662C9.21658 16.1662 10.2162 17.1509 10.2162 18.3701C10.2162 19.5892 9.21658 20.5739 7.99267 20.5739Z" fill="#0085D0"/>
<path d="M9.10636 18.37C9.10636 18.9796 8.6105 19.4681 7.99265 19.4681C7.38267 19.4681 6.88684 18.9796 6.88684 18.37C6.88684 17.7643 7.38267 17.2681 7.99265 17.2681C8.60658 17.2681 9.10636 17.7643 9.10636 18.37Z" fill="#0085D0"/>
</svg>
