<svg width="105" height="16" viewBox="0 0 105 16" fill="none" xmlns="http://www.w3.org/2000/svg">
<path d="M14.7781 15.6223H11.6515L7.76811 5.86977C7.73698 5.79167 7.68433 5.72494 7.61691 5.678C7.54943 5.63106 7.47017 5.60601 7.38907 5.60601C7.30796 5.60601 7.2287 5.63106 7.16122 5.678C7.0938 5.72494 7.04116 5.79167 7.01003 5.86977L3.12667 15.6223H0L5.6198 1.51089C5.76497 1.14615 6.01051 0.834455 6.32541 0.615177C6.64028 0.395899 7.01047 0.27887 7.38907 0.27887C7.76766 0.27887 8.13785 0.395899 8.45272 0.615177C8.76759 0.834455 9.01314 1.14615 9.15835 1.51089L14.7781 15.6223Z" fill="#333333"/>
<path d="M5.61023 14.1951V10.1987L9.71525 12.1969L5.61023 14.1951Z" fill="#4991BF"/>
<path d="M25.4512 10.6268V15.6223H22.9882V10.6268C22.9882 9.98335 22.7432 9.36618 22.3069 8.91116C21.8707 8.45614 21.279 8.2005 20.6621 8.2005C20.0451 8.2005 19.4534 8.45614 19.0172 8.91116C18.5809 9.36618 18.3359 9.98335 18.3359 10.6268V15.6223H15.8728V10.6268C15.8728 9.30195 16.3774 8.03139 17.2755 7.09456C18.1737 6.15772 19.3918 5.63141 20.6621 5.63141C21.9322 5.63141 23.1504 6.15772 24.0485 7.09456C24.9467 8.03139 25.4512 9.30195 25.4512 10.6268Z" fill="#333333"/>
<path d="M42.2821 5.63141V8.2005C41.6651 8.2005 41.0734 8.45614 40.6372 8.91116C40.201 9.36618 39.9559 9.98335 39.9559 10.6268V15.6223H37.4928V10.6268C37.4928 9.30195 37.9974 8.03139 38.8956 7.09456C39.7937 6.15772 41.0119 5.63141 42.2821 5.63141Z" fill="#333333"/>
<path d="M48.3027 5.34735C47.3284 5.34735 46.376 5.6487 45.5659 6.21329C44.7558 6.77788 44.1244 7.58035 43.7515 8.51926C43.3787 9.4581 43.2812 10.4912 43.4712 11.4879C43.6613 12.4847 44.1305 13.4002 44.8194 14.1187C45.5084 14.8374 46.3861 15.3267 47.3416 15.525C48.2972 15.7232 49.2876 15.6214 50.1877 15.2326C51.0879 14.8437 51.8572 14.1851 52.3985 13.3401C52.9398 12.4952 53.2287 11.5017 53.2287 10.4855C53.2287 9.12283 52.7097 7.8159 51.7859 6.85229C50.8621 5.88869 49.6091 5.34735 48.3027 5.34735ZM48.3027 13.34C47.7614 13.34 47.2322 13.1727 46.7822 12.859C46.3322 12.5453 45.9814 12.0995 45.7743 11.5779C45.5671 11.0563 45.5129 10.4823 45.6186 9.92866C45.7242 9.37492 45.9848 8.86625 46.3675 8.46708C46.7503 8.06785 47.2379 7.79601 47.7687 7.68583C48.2996 7.57566 48.8499 7.63219 49.3499 7.84825C49.85 8.0643 50.2774 8.43018 50.5781 8.8996C50.8788 9.36902 51.0393 9.92095 51.0393 10.4855C51.0393 10.8604 50.9685 11.2316 50.831 11.5779C50.6935 11.9242 50.4919 12.2389 50.2378 12.504C49.9836 12.7691 49.6819 12.9793 49.3499 13.1228C49.0179 13.2662 48.662 13.34 48.3027 13.34Z" fill="#333333"/>
<path d="M99.4788 5.34735C98.5048 5.34735 97.5524 5.6487 96.742 6.21329C95.9322 6.77788 95.3007 7.58035 94.9277 8.51926C94.5552 9.4581 94.4578 10.4912 94.6476 11.4879C94.8379 12.4847 95.3071 13.4002 95.9959 14.1187C96.6847 14.8374 97.5626 15.3267 98.5182 15.525C99.4737 15.7232 100.464 15.6214 101.364 15.2326C102.264 14.8437 103.034 14.1851 103.575 13.3401C104.116 12.4952 104.405 11.5017 104.405 10.4855C104.405 9.12283 103.886 7.8159 102.962 6.85229C102.039 5.88869 100.786 5.34735 99.4788 5.34735ZM99.4788 13.34C98.9377 13.34 98.4087 13.1727 97.9586 12.859C97.5085 12.5453 97.1577 12.0995 96.9508 11.5779C96.7433 11.0563 96.6892 10.4823 96.7949 9.92866C96.9005 9.37492 97.1609 8.86625 97.5442 8.46708C97.9268 8.06785 98.4144 7.79601 98.9453 7.68583C99.4763 7.57566 100.026 7.63219 100.526 7.84825C101.026 8.0643 101.454 8.43018 101.755 8.8996C102.055 9.36902 102.216 9.92095 102.216 10.4855C102.216 10.8604 102.145 11.2316 102.007 11.5779C101.87 11.9242 101.668 12.2389 101.414 12.504C101.16 12.7691 100.858 12.9793 100.526 13.1228C100.194 13.2662 99.8385 13.34 99.4788 13.34Z" fill="#4991BF"/>
<path d="M70.3332 3.49149C71.164 3.49149 71.8382 2.78858 71.8382 1.92149C71.8382 1.05441 71.164 0.351501 70.3332 0.351501C69.5018 0.351501 68.8276 1.05441 68.8276 1.92149C68.8276 2.78858 69.5018 3.49149 70.3332 3.49149Z" fill="#4991BF"/>
<path d="M68.0071 0.279236H64.8807L60.997 10.0318C60.9659 10.1099 60.9133 10.1766 60.8458 10.2235C60.7783 10.2705 60.6991 10.2955 60.618 10.2955C60.5369 10.2955 60.4576 10.2705 60.3902 10.2235C60.3227 10.1766 60.2701 10.1099 60.239 10.0318L56.3556 0.279236H53.2289L58.8487 14.3907C58.9939 14.7554 59.2394 15.0671 59.5543 15.2864C59.8692 15.5056 60.2394 15.6226 60.618 15.6226C60.9966 15.6226 61.3667 15.5056 61.6816 15.2864C61.9965 15.0671 62.2421 14.7554 62.3872 14.3907L68.0071 0.279236Z" fill="#4991BF"/>
<path d="M33.9352 0.493408V6.84475C33.2411 6.3184 32.421 6.00253 31.5656 5.93209C30.7101 5.86164 29.8526 6.03935 29.0879 6.44558C28.3233 6.85181 27.6812 7.47074 27.2328 8.23384C26.7843 8.99701 26.547 9.87464 26.547 10.7697C26.547 11.6649 26.7843 12.5425 27.2328 13.3056C27.6812 14.0687 28.3233 14.6877 29.0879 15.0939C29.8526 15.5001 30.7101 15.6779 31.5656 15.6074C32.421 15.5369 33.2411 15.2211 33.9352 14.6948V15.6225H36.3982V0.493408H33.9352ZM31.1985 13.3388C30.7114 13.3388 30.2352 13.1882 29.8301 12.9059C29.4251 12.6236 29.1094 12.2223 28.923 11.7529C28.7366 11.2834 28.6878 10.7669 28.7828 10.2685C28.8778 9.77016 29.1124 9.31239 29.4569 8.95315C29.8014 8.59383 30.2403 8.34917 30.718 8.25005C31.1958 8.15086 31.691 8.20176 32.1411 8.39619C32.5912 8.59068 32.9758 8.91993 33.2465 9.34246C33.5171 9.76494 33.6616 10.2616 33.6616 10.7697C33.6617 11.1072 33.5982 11.4415 33.4745 11.7533C33.3508 12.0652 33.1694 12.3486 32.9407 12.5873C32.7119 12.826 32.4403 13.0154 32.1414 13.1446C31.8425 13.2738 31.5221 13.3403 31.1985 13.3403V13.3388Z" fill="#333333"/>
<path d="M80.0481 0.493408V6.84475C79.3542 6.3184 78.5342 6.00253 77.6786 5.93209C76.823 5.86164 75.9655 6.03935 75.2009 6.44558C74.4363 6.85181 73.794 7.47074 73.3458 8.23384C72.8976 8.99701 72.6602 9.87464 72.6602 10.7697C72.6602 11.6649 72.8976 12.5425 73.3458 13.3056C73.794 14.0687 74.4363 14.6877 75.2009 15.0939C75.9655 15.5001 76.823 15.6779 77.6786 15.6074C78.5342 15.5369 79.3542 15.2211 80.0481 14.6948V15.6225H82.5111V0.493408H80.0481ZM77.3113 13.3388C76.8243 13.3388 76.3481 13.1882 75.9432 12.9059C75.5383 12.6236 75.2225 12.2223 75.036 11.7529C74.8495 11.2834 74.8011 10.7669 74.896 10.2685C74.9908 9.77016 75.2257 9.31239 75.5701 8.95315C75.9145 8.59383 76.3532 8.34917 76.8313 8.25005C77.3087 8.15086 77.804 8.20176 78.2541 8.39619C78.7042 8.59068 79.0887 8.91993 79.3593 9.34246C79.6298 9.76494 79.7743 10.2616 79.7743 10.7697C79.775 11.1072 79.7113 11.4415 79.5872 11.7533C79.4637 12.0652 79.2822 12.3486 79.0537 12.5873C78.8251 12.826 78.5533 13.0154 78.2541 13.1446C77.9555 13.2738 77.6353 13.3403 77.3113 13.3403V13.3388Z" fill="#4991BF"/>
<path d="M71.5645 5.34625H69.1014V15.6226H71.5645V5.34625Z" fill="#4991BF"/>
<path d="M88.8441 15.6225C87.2933 15.6225 86.0335 15.1771 85.0652 14.2865C84.0963 13.3959 83.6099 12.208 83.6061 10.7226V10.4672C83.5914 9.53714 83.8028 8.61832 84.2204 7.79675C84.6176 7.02856 85.2231 6.39953 85.9609 5.9884C86.7529 5.55189 87.6371 5.33097 88.5322 5.34613C89.9754 5.34613 91.1118 5.77431 91.9406 6.63068C92.774 7.48418 93.4583 8.70023 93.4583 10.2702C93.4621 10.6316 93.4392 10.9928 93.3902 11.3507H86.4645C86.5351 11.9609 86.8292 12.5188 87.2857 12.9078C87.7421 13.2979 88.3221 13.493 89.0262 13.493C90.1129 13.493 90.9615 13.1238 91.5727 12.3854L92.9605 13.8384C92.5072 14.4246 91.9152 14.8776 91.2429 15.1529C90.4815 15.4744 89.666 15.634 88.8441 15.6225ZM88.5226 7.48706C88.2737 7.47568 88.0254 7.51653 87.7918 7.60722C87.5588 7.69797 87.3449 7.83667 87.1641 8.01515C86.8165 8.37005 86.5937 8.87865 86.4963 9.54089H90.4179V9.32965C90.4045 8.74162 90.2351 8.28633 89.9105 7.96372C89.5858 7.64117 89.123 7.48037 88.5226 7.4813V7.48706Z" fill="#4991BF"/>
</svg>
