<svg width="104" height="25" viewBox="0 0 104 25" fill="none" xmlns="http://www.w3.org/2000/svg">
<g clip-path="url(#clip0)">
<path d="M103.329 0H0.635986V24.8176H103.329V0Z" fill="white"/>
<path d="M44.9529 11.8863C44.9529 11.8863 46.8747 11.253 46.8747 9.14198C46.8747 6.67203 45.0621 5.44763 42.5725 5.44763H36.0428V18.8738H43.1403C45.3241 18.8738 47.4643 17.3961 47.4643 15.1373C47.4643 12.4563 44.9529 11.9074 44.9529 11.8863ZM39.4496 8.23425H41.9829C42.7691 8.23425 43.2932 8.74087 43.2932 9.50084C43.2932 10.0919 42.8128 10.7252 41.9174 10.7252H39.4278L39.4496 8.23425ZM42.0047 16.0662H39.4715V13.4274H41.9392C43.184 13.4274 43.7736 13.9551 43.7736 14.7362C43.7736 15.7073 43.0311 16.0662 42.0047 16.0662Z" fill="#E20015"/>
<path d="M54.9768 5.1098C50.9584 5.1098 48.5999 8.21304 48.5999 12.1395C48.5999 16.0872 50.9584 19.1693 54.9768 19.1693C59.0167 19.1693 61.3535 16.0872 61.3535 12.1395C61.3535 8.21304 59.0167 5.1098 54.9768 5.1098ZM54.9768 15.9605C53.0112 15.9605 52.0284 14.2506 52.0284 12.1395C52.0284 10.0285 53.0112 8.33966 54.9768 8.33966C56.9423 8.33966 57.9467 10.0496 57.9467 12.1395C57.9467 14.2506 56.9423 15.9605 54.9768 15.9605Z" fill="#E20015"/>
<path d="M68.7566 10.704L68.276 10.5985C67.0971 10.3663 66.158 10.0707 66.158 9.24744C66.158 8.36081 67.053 8.0019 67.8396 8.0019C68.9969 8.0019 70.0234 8.55081 70.6785 9.24744L72.8402 7.1786C71.8575 6.10196 70.2637 5.06757 67.7739 5.06757C64.8476 5.06757 62.6418 6.65083 62.6418 9.28963C62.6418 11.6962 64.4327 12.8784 66.6165 13.3217L67.0971 13.4273C68.9096 13.7862 69.5864 14.0606 69.5864 14.905C69.5864 15.7072 68.8439 16.235 67.7081 16.235C66.3541 16.235 65.1316 15.665 64.1924 14.5039L61.9866 16.6149C63.2097 18.0293 64.7603 19.1271 67.7518 19.1271C70.3509 19.1271 73.1242 17.6916 73.1242 14.7572C73.1463 11.6962 70.7437 11.1051 68.7566 10.704Z" fill="#E20015"/>
<path d="M80.877 15.9605C79.3484 15.9605 77.7541 14.736 77.7541 12.0551C77.7541 9.66954 79.239 8.33962 80.7897 8.33962C82.0122 8.33962 82.7332 8.88849 83.3011 9.83845L86.0964 8.04409C84.6987 5.99635 83.0387 5.13086 80.746 5.13086C76.5531 5.13086 74.2815 8.27629 74.2815 12.0762C74.2815 16.066 76.7929 19.1904 80.7019 19.1904C83.4536 19.1904 84.7639 18.2615 86.1837 16.2771L83.3663 14.4405C82.7984 15.3272 82.1873 15.9605 80.877 15.9605Z" fill="#E20015"/>
<path d="M95.4209 5.42639V10.3662H91.2064V5.42639H87.5592V18.8526H91.2064V13.5539H95.4209V18.8526H99.068V5.42639H95.4209Z" fill="#E20015"/>
<path d="M15.0344 1.98541C9.22537 1.98541 4.5083 6.54524 4.5083 12.1606C4.5083 17.776 9.22537 22.3358 15.0344 22.3358C20.8434 22.3358 25.5604 17.776 25.5604 12.1606C25.5604 6.54524 20.8434 1.98541 15.0344 1.98541ZM15.0344 21.3859C9.77134 21.3859 5.49103 17.2482 5.49103 12.1606C5.49103 7.07301 9.77134 2.93538 15.0344 2.93538C20.2974 2.93538 24.5777 7.07301 24.5777 12.1606C24.5777 17.2482 20.2974 21.3859 15.0344 21.3859Z" fill="#575757"/>
<path d="M19.3801 5.8064H18.6594V9.28964H11.4309V5.8064H10.6885C8.57011 7.17861 7.15063 9.50074 7.15063 12.1606C7.15063 14.8205 8.57011 17.1427 10.6885 18.5149H11.4309V15.0316H18.6594V18.5149H19.3801C21.5203 17.1427 22.9179 14.8205 22.9179 12.1606C22.9179 9.50074 21.5203 7.17861 19.3801 5.8064ZM10.4264 17.1427C8.96322 15.8972 8.11154 14.1028 8.11154 12.1606C8.11154 10.2185 8.96322 8.4241 10.4264 7.17861V17.1427ZM18.6594 14.0606H11.4309V10.2396H18.6594C18.6594 10.2607 18.6594 14.0606 18.6594 14.0606ZM19.6422 17.1216V15.0105V9.28964V7.17861C21.0835 8.4241 21.9352 10.2185 21.9352 12.1395C21.9352 14.0817 21.0835 15.8761 19.6422 17.1216Z" fill="#575757"/>
</g>
<defs>
<clipPath id="clip0">
<rect width="102.693" height="24.8176" fill="white" transform="translate(0.635986)"/>
</clipPath>
</defs>
</svg>
