<svg width="75" height="41" viewBox="0 0 75 41" fill="none" xmlns="http://www.w3.org/2000/svg">
<path d="M0 26.2267H4.37618C5.23781 26.2267 5.89538 26.2719 6.30353 26.34C6.73435 26.4079 7.11982 26.5663 7.43725 26.7929C7.77739 27.0194 8.04947 27.3365 8.27622 27.6987C8.50297 28.0837 8.61633 28.5141 8.61633 28.9671C8.61633 29.4881 8.48028 29.9409 8.2082 30.3713C7.9361 30.8016 7.55063 31.1187 7.07447 31.3226C7.73203 31.5264 8.25355 31.8435 8.61633 32.319C8.97913 32.7948 9.16051 33.3382 9.16051 33.9724C9.16051 34.4706 9.04715 34.9461 8.8204 35.4219C8.59367 35.8974 8.27622 36.2599 7.86806 36.5543C7.45993 36.826 6.98377 37.0072 6.39423 37.0752C6.03143 37.1204 5.14714 37.1431 3.71863 37.1431H0V26.2267ZM2.19943 28.0612V30.5751H3.6506C4.51223 30.5751 5.05643 30.5524 5.2605 30.5299C5.64597 30.4845 5.94073 30.3486 6.1448 30.1447C6.37155 29.9184 6.46225 29.6465 6.46225 29.2842C6.46225 28.9444 6.37155 28.6727 6.19015 28.4689C6.00877 28.2651 5.73667 28.1291 5.3512 28.0837C5.12445 28.0612 4.51223 28.0385 3.46922 28.0385H2.19943V28.0612ZM2.19943 32.4096V35.3313H4.24015C5.03375 35.3313 5.5326 35.3086 5.75933 35.2632C6.07678 35.1954 6.34888 35.0594 6.55295 34.8331C6.75701 34.6066 6.8704 34.2895 6.8704 33.9045C6.8704 33.5874 6.7797 33.293 6.62096 33.0665C6.46225 32.8399 6.2355 32.6815 5.94073 32.5682C5.64597 32.455 4.9884 32.4096 3.99071 32.4096H2.19943Z" fill="url(#paint0_linear)"/>
<path d="M9.25122 33.6101L11.4053 33.4062C11.5414 34.131 11.7908 34.6519 12.1989 34.9915C12.5844 35.3313 13.1286 35.4897 13.8088 35.4897C14.5117 35.4897 15.0559 35.3313 15.4187 35.0369C15.7815 34.7425 15.9629 34.38 15.9629 33.9723C15.9629 33.7233 15.8949 33.4968 15.7361 33.3157C15.5774 33.1343 15.328 32.9759 14.9425 32.8399C14.6931 32.7494 14.1036 32.5909 13.1739 32.3644C11.9948 32.07 11.1559 31.7075 10.6797 31.2774C9.99949 30.6659 9.68204 29.9411 9.68204 29.0804C9.68204 28.5143 9.84075 27.9933 10.1582 27.5176C10.4757 27.042 10.9291 26.6571 11.5187 26.4079C12.1082 26.1588 12.8338 26.0229 13.6728 26.0229C15.0559 26.0229 16.0763 26.3173 16.7791 26.9288C17.4821 27.5403 17.8449 28.3329 17.8675 29.3296L15.6681 29.4202C15.5774 28.8538 15.3733 28.4462 15.0559 28.1972C14.7385 27.9479 14.285 27.8347 13.6501 27.8347C13.0152 27.8347 12.5164 27.9706 12.1309 28.2197C11.9041 28.3783 11.7908 28.6048 11.7908 28.8992C11.7908 29.1482 11.9041 29.3748 12.1082 29.5559C12.3803 29.7824 13.0605 30.0317 14.1489 30.2807C15.2146 30.5299 16.0082 30.8016 16.5297 31.0735C17.0512 31.3452 17.4594 31.7075 17.7315 32.1833C18.0262 32.6588 18.1623 33.2251 18.1623 33.9272C18.1623 34.5614 17.9809 35.1502 17.6408 35.6936C17.3007 36.2372 16.8018 36.6449 16.167 36.9168C15.5321 37.1885 14.7385 37.3244 13.7861 37.3244C12.403 37.3244 11.3373 37.0074 10.589 36.3732C9.84075 35.7617 9.38727 34.8331 9.25122 33.6101Z" fill="url(#paint1_linear)"/>
<path d="M21.246 37.1658V28.0837H18.0035V26.2267H26.7105V28.0837H23.468V37.1658H21.246Z" fill="url(#paint2_linear)"/>
<path d="M26.8691 34.8104L28.2071 34.6066C28.2751 35.1275 28.4792 35.5352 28.8193 35.8296C29.1594 36.124 29.6356 36.2599 30.2478 36.2599C30.86 36.2599 31.3135 36.124 31.6308 35.8749C31.9256 35.6257 32.0843 35.3313 32.0843 34.9915C32.0843 34.6971 31.9484 34.4481 31.699 34.2668C31.5176 34.1535 31.0641 33.9951 30.3158 33.8139C29.3408 33.5647 28.6379 33.3609 28.2751 33.1797C27.8896 32.9986 27.5947 32.7494 27.4133 32.4323C27.2094 32.1152 27.1187 31.7529 27.1187 31.3679C27.1187 31.0055 27.2094 30.6884 27.3681 30.394C27.5268 30.0996 27.7536 29.8503 28.0257 29.6465C28.2296 29.4881 28.5245 29.3521 28.8873 29.2615C29.2501 29.1483 29.6356 29.1031 30.0437 29.1031C30.6558 29.1031 31.2228 29.1937 31.6763 29.3748C32.1525 29.5559 32.4926 29.8052 32.7192 30.0996C32.9461 30.394 33.1047 30.8243 33.1727 31.3225L31.8577 31.5037C31.7897 31.096 31.6308 30.7789 31.3362 30.5526C31.0414 30.3261 30.6558 30.2128 30.1116 30.2128C29.4995 30.2128 29.046 30.3034 28.7966 30.5072C28.5245 30.711 28.411 30.9603 28.411 31.232C28.411 31.4131 28.4565 31.5718 28.5699 31.7075C28.6831 31.8435 28.8418 31.9794 29.0914 32.07C29.2274 32.1152 29.6129 32.2284 30.2705 32.4096C31.2228 32.6588 31.8804 32.8626 32.2657 33.0211C32.6512 33.1797 32.9461 33.4287 33.15 33.7234C33.3541 34.0405 33.4675 34.4254 33.4675 34.8783C33.4675 35.3313 33.3314 35.739 33.082 36.1467C32.8099 36.5316 32.4471 36.8487 31.9484 37.0752C31.4494 37.3018 30.9052 37.3923 30.2705 37.3923C29.2501 37.3923 28.4565 37.1885 27.9123 36.7581C27.3681 36.2826 27.028 35.6484 26.8691 34.8104Z" fill="black"/>
<path d="M39.5671 34.6292L40.9503 34.8103C40.7237 35.6257 40.3154 36.2598 39.726 36.6902C39.1363 37.143 38.3882 37.3696 37.4584 37.3696C36.3021 37.3696 35.3723 37.0071 34.6922 36.305C34.0118 35.5803 33.6718 34.5838 33.6718 33.2929C33.6718 31.9567 34.0118 30.9148 34.6922 30.1901C35.3723 29.4426 36.2793 29.0803 37.3677 29.0803C38.4334 29.0803 39.295 29.4426 39.9753 30.1674C40.6555 30.8921 40.973 31.9113 40.973 33.2024C40.973 33.2929 40.973 33.4062 40.973 33.5646H35.055C35.1002 34.4254 35.3496 35.1047 35.8031 35.5578C36.2566 36.0106 36.8008 36.2598 37.4584 36.2598C37.9572 36.2598 38.3655 36.1239 38.7283 35.8749C39.0911 35.603 39.3632 35.1953 39.5671 34.6292ZM35.1682 32.4549H39.5898C39.5218 31.798 39.3632 31.2998 39.0911 30.9602C38.6603 30.4393 38.1161 30.1901 37.4357 30.1901C36.8235 30.1901 36.3021 30.3939 35.8713 30.8015C35.4403 31.2092 35.2137 31.7528 35.1682 32.4549Z" fill="black"/>
<path d="M46.9137 34.2667L48.2287 34.4481C48.0928 35.354 47.7073 36.0788 47.1178 36.577C46.5282 37.0979 45.8026 37.3469 44.9183 37.3469C43.8299 37.3469 42.9683 36.9847 42.3107 36.2826C41.6533 35.5803 41.313 34.5612 41.313 33.2249C41.313 32.3644 41.4491 31.6169 41.744 30.9827C42.0386 30.3488 42.4694 29.8503 43.0363 29.5332C43.626 29.2163 44.2381 29.0577 44.9183 29.0577C45.78 29.0577 46.4829 29.2842 47.0271 29.7146C47.5713 30.1449 47.9341 30.7564 48.0701 31.5718L46.755 31.7756C46.6416 31.2547 46.4149 30.847 46.0974 30.5751C45.78 30.3034 45.3945 30.1674 44.941 30.1674C44.2609 30.1674 43.7167 30.4166 43.2857 30.8922C42.8549 31.3679 42.6508 32.1379 42.6508 33.2024C42.6508 34.2667 42.8549 35.0369 43.2632 35.5124C43.6712 35.988 44.2154 36.2372 44.8503 36.2372C45.3718 36.2372 45.8253 36.0788 46.1654 35.7617C46.5963 35.4446 46.8003 34.9463 46.9137 34.2667Z" fill="black"/>
<path d="M53.9656 37.1658V36.0107C53.3534 36.9166 52.5143 37.3469 51.4487 37.3469C50.9724 37.3469 50.5417 37.2564 50.1334 37.0752C49.7254 36.8939 49.4305 36.6676 49.2266 36.3957C49.0225 36.124 48.8863 35.7842 48.8184 35.3992C48.7731 35.1275 48.7277 34.7198 48.7277 34.1535V29.2388H50.0654V33.6326C50.0654 34.3346 50.0882 34.8104 50.1561 35.0594C50.2468 35.4219 50.4282 35.6936 50.7003 35.8974C50.9724 36.1013 51.3125 36.1918 51.7208 36.1918C52.1288 36.1918 52.4916 36.0786 52.8544 35.8747C53.2172 35.6709 53.4666 35.3765 53.6028 35.0369C53.7387 34.6744 53.8294 34.1762 53.8294 33.4968V29.2615H55.1672V37.1885H53.9656V37.1658Z" fill="black"/>
<path d="M56.6411 37.1658V29.2388H57.8429V30.4393C58.1603 29.873 58.4324 29.5107 58.7045 29.3294C58.9766 29.1482 59.2487 29.0577 59.5663 29.0577C60.0198 29.0577 60.4733 29.1936 60.9493 29.488L60.4958 30.7337C60.1784 30.5299 59.8384 30.4393 59.5208 30.4393C59.226 30.4393 58.9539 30.5299 58.7272 30.711C58.5004 30.8922 58.319 31.1414 58.2285 31.4358C58.0696 31.9113 58.0016 32.4323 58.0016 32.9986V37.1431H56.6411V37.1658Z" fill="black"/>
<path d="M61.1532 27.7895V26.2494H62.491V27.7895H61.1532ZM61.1532 37.1658V29.2388H62.491V37.1658H61.1532Z" fill="black"/>
<path d="M66.8673 35.9656L67.0715 37.1432C66.6859 37.2337 66.3459 37.2564 66.051 37.2564C65.5523 37.2564 65.1895 37.1885 64.9174 37.0299C64.6453 36.8715 64.4639 36.6676 64.3504 36.4184C64.237 36.1694 64.1918 35.6485 64.1918 34.8331V30.2807H63.2168V29.2389H64.1918V27.2686L65.5296 26.4533V29.2164H66.8901V30.258H65.5296V34.901C65.5296 35.286 65.5523 35.5352 65.5975 35.6485C65.643 35.7617 65.711 35.8523 65.8244 35.9202C65.9376 35.988 66.0738 36.0107 66.2779 36.0107C66.4138 36.0334 66.618 36.0107 66.8673 35.9656Z" fill="black"/>
<path d="M67.5022 40.2233L67.3435 38.9551C67.6382 39.0457 67.8878 39.0684 68.1144 39.0684C68.4092 39.0684 68.6586 39.023 68.84 38.9097C69.0214 38.8192 69.1573 38.6605 69.2708 38.5021C69.3615 38.3661 69.4976 38.0265 69.679 37.5056C69.7015 37.4375 69.747 37.3245 69.7922 37.1885L66.7766 29.2615H68.2278L69.8829 33.8591C70.0871 34.4481 70.2912 35.0596 70.4499 35.6936C70.6086 35.0821 70.7899 34.4706 70.9941 33.8818L72.6947 29.2615H74.0324L71.0168 37.3245C70.6993 38.185 70.4499 38.7965 70.2685 39.1136C70.0191 39.5666 69.747 39.8837 69.4522 40.0876C69.1348 40.2914 68.772 40.4044 68.341 40.4044C68.1144 40.382 67.8196 40.3366 67.5022 40.2233Z" fill="black"/>
<path d="M45.4169 23.9392C45.4169 24.8678 40.9501 25.6377 35.4628 25.6377C29.9755 25.6377 25.5087 24.8678 25.5087 23.9392C25.5087 23.0106 29.9755 22.2407 35.4628 22.2407C40.9728 22.2407 45.4169 23.0106 45.4169 23.9392Z" fill="url(#paint3_radial)"/>
<path d="M36.3473 8.22131C31.8577 8.22131 28.2072 11.8677 28.2072 16.352C28.2072 20.8364 31.8577 24.4828 36.3473 24.4828C40.8368 24.4828 44.4874 20.8364 44.4874 16.352C44.4648 11.8677 40.8368 8.22131 36.3473 8.22131ZM36.3473 22.8975C32.742 22.8975 29.7943 19.9758 29.7943 16.352C29.7943 12.751 32.7194 9.80669 36.3473 9.80669C39.9525 9.80669 42.9002 12.7283 42.9002 16.352C42.8775 19.9531 39.9525 22.8975 36.3473 22.8975Z" fill="url(#paint4_radial)"/>
<path d="M41.4263 19.0698C41.8571 18.2545 42.1064 17.3259 42.1064 16.3521C42.1064 13.136 39.4988 10.5088 36.2566 10.5088C33.0366 10.5088 30.4065 13.1133 30.4065 16.3521C30.4065 17.3259 30.6559 18.2545 31.0639 19.0698C34.5333 19.0472 37.9797 19.0472 41.4263 19.0698Z" fill="url(#paint5_radial)"/>
<path d="M31.0638 19.0472C32.039 20.927 34.0117 22.1953 36.2565 22.1953C38.5013 22.1953 40.4512 20.927 41.4262 19.0699C37.9796 19.0472 34.5332 19.0472 31.0638 19.0472Z" fill="url(#paint6_radial)"/>
<path d="M36.0753 1.56273C42.3786 1.56273 47.7072 5.45823 49.544 10.8259C48.5008 4.68819 42.8776 0 36.0753 0C29.2729 0 23.6722 4.68819 22.6066 10.8032C24.4431 5.43558 29.7944 1.56273 36.0753 1.56273Z" fill="url(#paint7_radial)"/>
<path d="M36.0752 4.14456C40.8368 4.14456 44.8729 7.08882 46.2786 11.1655C45.4851 6.52261 41.2221 2.9895 36.0752 2.9895C30.928 2.9895 26.6878 6.52261 25.8715 11.1655C27.2774 7.08882 31.3135 4.14456 36.0752 4.14456Z" fill="url(#paint8_radial)"/>
<path d="M36.0752 6.90773C40.1567 6.90773 43.6031 9.4217 44.7822 12.8869C44.1021 8.92342 40.4513 5.88855 36.0752 5.88855C31.6763 5.88855 28.0485 8.92342 27.3682 12.8869C28.57 9.4217 32.0164 6.90773 36.0752 6.90773Z" fill="url(#paint9_radial)"/>
<path d="M39.1136 16.352C39.1136 17.9374 37.8213 19.2057 36.2566 19.2057C34.6695 19.2057 33.3997 17.9147 33.3997 16.352C33.3997 14.7666 34.6922 13.4983 36.2566 13.4983C37.844 13.4757 39.1136 14.7666 39.1136 16.352Z" fill="url(#paint10_radial)"/>
<defs>
<linearGradient id="paint0_linear" x1="4.58466" y1="21.7396" x2="4.58466" y2="38.389" gradientUnits="userSpaceOnUse">
<stop offset="0.00561798" stop-color="#E31E3E"/>
<stop offset="0.4719" stop-color="#B91D22"/>
</linearGradient>
<linearGradient id="paint1_linear" x1="13.703" y1="21.74" x2="13.703" y2="38.3888" gradientUnits="userSpaceOnUse">
<stop offset="0.00561798" stop-color="#E31E3E"/>
<stop offset="0.4719" stop-color="#B91D22"/>
</linearGradient>
<linearGradient id="paint2_linear" x1="22.3543" y1="21.7396" x2="22.3543" y2="38.389" gradientUnits="userSpaceOnUse">
<stop offset="0.00561798" stop-color="#E31E3E"/>
<stop offset="0.4719" stop-color="#B91D22"/>
</linearGradient>
<radialGradient id="paint3_radial" cx="0" cy="0" r="1" gradientUnits="userSpaceOnUse" gradientTransform="translate(35.4656 23.9422) scale(9.95368 1.69634)">
<stop offset="0.3371" stop-color="#8A8A89"/>
<stop offset="0.7116" stop-color="#CECECE"/>
<stop offset="0.9944" stop-color="white"/>
</radialGradient>
<radialGradient id="paint4_radial" cx="0" cy="0" r="1" gradientUnits="userSpaceOnUse" gradientTransform="translate(39.5213 16.6319) scale(33.254 33.2154)">
<stop offset="0.1685" stop-color="#F6F6F6"/>
<stop offset="1"/>
</radialGradient>
<radialGradient id="paint5_radial" cx="0" cy="0" r="1" gradientUnits="userSpaceOnUse" gradientTransform="translate(34.9939 13.2157) scale(8.37973 8.37003)">
<stop offset="0.00561798" stop-color="#E31E3E"/>
<stop offset="0.4719" stop-color="#B91D22"/>
<stop offset="0.9888"/>
</radialGradient>
<radialGradient id="paint6_radial" cx="0" cy="0" r="1" gradientUnits="userSpaceOnUse" gradientTransform="translate(35.1352 20.0436) scale(6.05107 6.04398)">
<stop offset="0.00561798" stop-color="#E31E3E"/>
<stop offset="0.4719" stop-color="#B91D22"/>
<stop offset="0.9888"/>
</radialGradient>
<radialGradient id="paint7_radial" cx="0" cy="0" r="1" gradientUnits="userSpaceOnUse" gradientTransform="translate(35.2241 12.8342) scale(38.9553 36.8083)">
<stop offset="0.1685" stop-color="#E9E9E9"/>
<stop offset="1"/>
</radialGradient>
<radialGradient id="paint8_radial" cx="0" cy="0" r="1" gradientUnits="userSpaceOnUse" gradientTransform="translate(35.2242 12.8341) scale(38.9553 36.8083)">
<stop offset="0.1685" stop-color="#E9E9E9"/>
<stop offset="1"/>
</radialGradient>
<radialGradient id="paint9_radial" cx="0" cy="0" r="1" gradientUnits="userSpaceOnUse" gradientTransform="translate(35.224 12.8341) scale(38.9547 36.8078)">
<stop offset="0.1685" stop-color="#E9E9E9"/>
<stop offset="1"/>
</radialGradient>
<radialGradient id="paint10_radial" cx="0" cy="0" r="1" gradientUnits="userSpaceOnUse" gradientTransform="translate(35.6351 15.2964) scale(4.77368 4.76812)">
<stop offset="0.00561798" stop-color="white"/>
<stop offset="0.5" stop-color="#B91D22"/>
</radialGradient>
</defs>
</svg>
