<svg width="100" height="25" viewBox="0 0 100 25" fill="none" xmlns="http://www.w3.org/2000/svg">
<path d="M10.6697 10.3024C10.3864 7.68164 13.1134 5.5921 16.7966 5.6275C20.4445 5.66292 23.6673 7.78789 23.9507 10.4086C24.234 13.0294 21.5069 15.119 17.8237 15.0835C14.1404 15.0481 10.953 12.8877 10.6697 10.3024ZM24.6236 11.0816C24.3048 7.85871 20.6216 5.20253 16.4071 5.1671C12.1572 5.13167 9.00516 7.75246 9.3593 10.9753C9.67805 14.1981 13.3613 16.8544 17.5758 16.8897C21.7903 16.9252 24.9423 14.3398 24.6236 11.0816Z" fill="#FBB584"/>
<path d="M18.2488 16.9606C16.1592 19.1209 12.8301 19.298 10.8114 17.3502C8.79274 15.4023 8.82813 12.0732 10.8823 9.91284C12.9718 7.75244 16.3009 7.57537 18.3196 9.52323C20.3383 11.4711 20.3029 14.8002 18.2488 16.9606ZM10.5635 9.84198C8.15524 12.3565 8.11981 16.2523 10.4573 18.5189C12.8301 20.7855 16.6905 20.573 19.0987 18.0585C21.507 15.5439 21.5425 11.6482 19.205 9.38159C16.8321 7.11498 12.9718 7.32748 10.5635 9.84198Z" fill="#F89B6C"/>
<path d="M10.7759 1.73169C15.0966 0.10256 19.3466 1.76711 20.3028 5.37953C21.259 9.02736 18.532 13.2773 14.2113 14.9064C9.89054 16.5001 5.60522 14.871 4.6844 11.2231C3.72815 7.61071 6.45518 3.32541 10.7759 1.73169ZM6.77393 3.11291C2.31152 6.6545 1.1428 11.7898 4.22397 14.5876C7.30518 17.3855 13.4321 16.7834 17.8945 13.2064C22.3923 9.66486 23.5256 4.52953 20.4445 1.73169C17.3633 -1.03075 11.2363 -0.428679 6.77393 3.11291Z" fill="#F37321"/>
<path d="M38.6836 4.03406V16.0755H36.4172V9.87766H29.9005V16.0755H27.6339V4.03406H29.9005V7.96524H36.4172V4.03406H38.6836Z" fill="black"/>
<path d="M42.8271 16.0398C41.9417 16.0398 41.2335 15.7919 40.7025 15.2606C40.171 14.7294 39.8878 14.0919 39.8878 13.3481V12.6753C39.8878 11.8961 40.171 11.2586 40.7025 10.7274C41.2335 10.1961 41.9417 9.94822 42.7564 9.94822H47.4668V9.91282C47.4668 9.16907 46.9357 8.7795 45.9085 8.7795H40.596V6.90247H46.121C47.2543 6.90247 48.1396 7.18579 48.7771 7.78786C49.4146 8.38993 49.6978 9.16907 49.6978 10.1961V13.3481C49.6978 14.1273 49.4146 14.8002 48.8478 15.296C48.3168 15.7564 47.6085 15.9689 46.6875 15.9689H42.8271V16.0398ZM46.121 11.8253H43.4292C42.5792 11.8253 42.1189 12.1794 42.1189 12.8523V13.1711C42.1189 13.844 42.5439 14.1981 43.4292 14.1981H46.121C47.0064 14.1981 47.4668 13.844 47.4668 13.1711V12.8523C47.4668 12.144 47.0064 11.8253 46.121 11.8253Z" fill="black"/>
<path d="M54.8332 6.93787H56.7103C57.9143 6.93787 58.8353 7.29204 59.5435 7.96494C60.2164 8.67326 60.5707 9.62947 60.5707 10.8336V16.0398H58.3039V11.0107C58.3039 10.267 58.1625 9.73572 57.9143 9.41697C57.5957 9.0274 57.1353 8.85033 56.4978 8.85033H55.0457C54.4435 8.85033 53.9832 9.0274 53.6646 9.41697C53.4168 9.73572 53.3103 10.267 53.3103 11.0107V16.0752H51.0082V10.8336C51.0082 9.62947 51.3625 8.67326 52.0353 7.96494C52.7082 7.29204 53.6646 6.93787 54.8332 6.93787Z" fill="black"/>
<path d="M68.8225 14.9419C68.185 15.6856 67.4061 16.0398 66.4143 16.0398H65.21C64.1475 16.0398 63.2621 15.6856 62.6246 15.0127C62.0228 14.3752 61.7393 13.4898 61.7393 12.3565V6.93787H64.006V12.3565C64.006 12.994 64.1475 13.4544 64.3957 13.7377C64.6789 14.021 65.0332 14.1981 65.4935 14.1981H66.2018C66.6621 14.1981 67.0518 14.0565 67.335 13.7377C67.5828 13.4544 67.7246 12.994 67.7246 12.3565V6.93787H69.9557V12.3565C69.9557 12.994 70.0975 13.4544 70.3453 13.7377C70.6289 14.021 70.9828 14.1981 71.4432 14.1981H72.1518C72.6121 14.1981 73.0018 14.0565 73.285 13.7377C73.5328 13.4544 73.6746 12.994 73.6746 12.3565V6.93787H75.9057V12.3919C75.9057 13.5252 75.5871 14.4106 74.985 15.0481C74.3121 15.721 73.4621 16.0752 72.3996 16.0752H71.1953C70.2039 16.0398 69.4246 15.6856 68.8225 14.9419Z" fill="black"/>
<path d="M81.1118 8.81486C80.5096 8.81486 80.0493 8.99193 79.7307 9.3815C79.4828 9.70025 79.3764 10.2315 79.3764 10.9752V16.0397H77.1096V3.99829H79.3764V7.36279C79.8368 7.07947 80.3325 6.93783 80.9346 6.93783H82.8118C84.0161 6.93783 84.9368 7.29197 85.645 7.96486C86.3178 8.67318 86.6721 9.62943 86.6721 10.8336V16.0397H84.4053V11.0106C84.4053 10.2669 84.2639 9.73568 84.0161 9.41693C83.6971 9.02736 83.2368 8.85026 82.5993 8.85026H81.1118V8.81486Z" fill="black"/>
<path d="M90.6743 16.0398C89.7885 16.0398 89.0803 15.7919 88.5493 15.2606C88.0178 14.7294 87.7346 14.0919 87.7346 13.3481V12.6753C87.7346 11.8961 88.0178 11.2586 88.5493 10.7274C89.0803 10.1961 89.7885 9.94822 90.6032 9.94822H95.3135V9.91282C95.3135 9.16907 94.7825 8.7795 93.7553 8.7795H88.4428V6.90247H93.9678C95.101 6.90247 95.9864 7.18579 96.6239 7.78786C97.2614 8.38993 97.5446 9.16907 97.5446 10.1961V13.3481C97.5446 14.1273 97.2614 14.8002 96.6946 15.296C96.1635 15.7564 95.4553 15.9689 94.5343 15.9689H90.6743V16.0398ZM93.9678 11.8253H91.276C90.426 11.8253 89.9657 12.1794 89.9657 12.8523V13.1711C89.9657 13.844 90.3907 14.1981 91.276 14.1981H93.9678C94.8532 14.1981 95.3135 13.844 95.3135 13.1711V12.8523C95.3135 12.144 94.8532 11.8253 93.9678 11.8253Z" fill="black"/>
<path d="M30.9275 24.965H29.7588V19.9006H27.4922V18.9443H33.1941V19.9006H30.8921V24.965H30.9275Z" fill="black"/>
<path d="M38.2586 21.7771V22.0958C38.2586 22.4854 38.1171 22.8041 37.8336 23.0521C37.5503 23.3 37.1961 23.4416 36.8068 23.4416H34.4691V23.4771C34.4691 23.8312 34.7171 24.0437 35.2483 24.0437H38.0461V24.9999H35.1066C34.54 24.9999 34.0796 24.8583 33.7608 24.5395C33.4421 24.2562 33.3004 23.8312 33.3004 23.3354V21.7771C33.3004 21.3875 33.4421 21.0688 33.69 20.8208C33.9733 20.573 34.3275 20.4313 34.7525 20.4313H36.7003C37.1607 20.4313 37.515 20.573 37.7628 20.8208C38.1171 21.0688 38.2586 21.3875 38.2586 21.7771ZM35.1066 22.5208H36.4525C36.8775 22.5208 37.1253 22.3437 37.1253 22.025V21.8479C37.1253 21.4938 36.9128 21.3521 36.4525 21.3521H35.1066C34.6816 21.3521 34.4691 21.5292 34.4691 21.8479V22.025C34.4691 22.3437 34.6816 22.5208 35.1066 22.5208Z" fill="black"/>
<path d="M43.7482 24.9646H40.7025C40.1357 24.9646 39.6753 24.7874 39.321 24.4687C39.0025 24.15 38.8253 23.6896 38.8253 23.1229V22.3083C38.8253 21.7063 39.0025 21.2813 39.321 20.9626C39.64 20.6438 40.1003 20.4667 40.7025 20.4667H43.7482V21.4229H40.8439C40.5253 21.4229 40.2775 21.5292 40.1357 21.7063C40.0292 21.8479 39.9585 22.0959 39.9585 22.4146V23.1229C39.9585 23.4417 40.0292 23.6896 40.1357 23.8312C40.2775 24.0083 40.5253 24.0792 40.8439 24.0792H43.7482V24.9646Z" fill="black"/>
<path d="M46.3689 21.3522C46.0853 21.3522 45.8375 21.4585 45.6607 21.6355C45.5543 21.7772 45.4835 22.0605 45.4835 22.4147V24.9292H44.35V18.9085H45.4835V20.5731C45.696 20.4314 45.9793 20.3606 46.2625 20.3606H47.2189C47.821 20.3606 48.2814 20.5377 48.6353 20.8918C48.9896 21.246 49.1314 21.7064 49.1314 22.3439V24.9292H47.9978V22.4147C47.9978 22.0251 47.9271 21.7772 47.7853 21.6355C47.6439 21.4585 47.396 21.3522 47.0771 21.3522H46.3689Z" fill="black"/>
<path d="M53.2396 24.3978C52.9207 24.752 52.531 24.9645 52.0353 24.9645H51.4332C50.9021 24.9645 50.4771 24.7874 50.1228 24.4687C49.8396 24.1499 49.6625 23.7249 49.6625 23.1583V20.4313H50.7957V23.1229C50.7957 23.4416 50.8668 23.6895 50.9728 23.7958C51.1146 23.9374 51.2918 24.0083 51.5396 24.0083H51.8935C52.1414 24.0083 52.3186 23.9374 52.4603 23.7958C52.6021 23.6541 52.6728 23.4416 52.6728 23.1229V20.4313H53.806V23.1229C53.806 23.4416 53.8771 23.6895 53.9832 23.7958C54.125 23.9374 54.3018 24.0083 54.55 24.0083H54.9039C55.1518 24.0083 55.3289 23.9374 55.4707 23.7958C55.6125 23.6541 55.6832 23.4416 55.6832 23.1229V20.4313H56.8164V23.1583C56.8164 23.7249 56.675 24.1499 56.356 24.4687C56.0375 24.8228 55.5768 24.9645 55.0457 24.9645H54.4435C53.9478 24.9645 53.5582 24.7874 53.2396 24.3978Z" fill="black"/>
<path d="M58.7289 19.546C58.7289 19.7231 58.6582 19.9002 58.5164 20.0064C58.375 20.1126 58.1978 20.1835 58.0207 20.1835C57.8082 20.1835 57.6664 20.1126 57.525 20.0064C57.3832 19.9002 57.3125 19.7231 57.3125 19.546C57.3125 19.3689 57.3832 19.1919 57.525 19.0856C57.6664 18.9439 57.8082 18.9085 58.0207 18.9085C58.2332 18.9085 58.4103 18.9794 58.5164 19.0856C58.6228 19.1919 58.7289 19.3689 58.7289 19.546ZM57.4539 24.9646V20.4314H58.5875V24.9646H57.4539Z" fill="black"/>
<path d="M61.2082 20.3961H62.1643C62.7664 20.3961 63.2268 20.5731 63.5811 20.9273C63.935 21.2815 64.0768 21.7418 64.0768 22.3793V24.9647H62.9436V22.4502C62.9436 22.0606 62.8725 21.8127 62.7311 21.671C62.5893 21.494 62.3414 21.3877 62.0229 21.3877H61.2789C60.9957 21.3877 60.7479 21.494 60.5707 21.671C60.4643 21.8127 60.3936 22.096 60.3936 22.4502V24.9647H59.2604V22.3793C59.2604 21.7773 59.4375 21.2815 59.7561 20.9273C60.1457 20.5731 60.6061 20.3961 61.2082 20.3961Z" fill="black"/>
</svg>
