<svg width="78" height="20" viewBox="0 0 78 20" fill="none" xmlns="http://www.w3.org/2000/svg">
<path d="M15.1742 6.10273C17.3761 6.10273 19.1951 7.94097 19.1951 10.2204C19.1951 12.4753 17.4 14.3135 15.1742 14.3135C12.9723 14.3135 11.1533 12.4753 11.1533 10.2204C11.1533 7.96551 12.9484 6.10273 15.1742 6.10273ZM15.1742 3.79883C11.7277 3.79883 8.90356 6.66649 8.90356 10.2204C8.90356 13.7498 11.7038 16.642 15.1742 16.642C18.6207 16.642 21.4448 13.7743 21.4448 10.2204C21.4209 6.66649 18.6207 3.79883 15.1742 3.79883Z" fill="#6FBA2C"/>
<path d="M15.174 7.69592C13.8098 7.69592 12.7089 8.82339 12.7089 10.2204C12.7089 11.6175 13.8098 12.7204 15.174 12.7204C16.5382 12.7204 17.6153 11.593 17.6153 10.2204C17.6153 8.82339 16.5143 7.69592 15.174 7.69592Z" fill="#007BC7"/>
<path d="M25.3457 4.63232V5.88229C25.8482 5.36761 26.3748 4.99995 26.9492 4.73035C27.5236 4.48525 28.1459 4.3382 28.816 4.3382C30.2521 4.3382 31.4727 4.9019 32.4779 6.00487C33.4831 7.1078 33.9857 8.52936 33.9857 10.2696C33.9857 11.9362 33.4592 13.3578 32.43 14.4852C31.4009 15.6127 30.1563 16.1764 28.7442 16.1764C28.098 16.1764 27.5236 16.0538 26.9732 15.8333C26.4226 15.6127 25.8961 15.2205 25.3457 14.7058V19.9999H22.5933V4.63232H25.3457ZM28.2416 6.93624C27.38 6.93624 26.6381 7.23034 26.0876 7.84307C25.5132 8.45585 25.226 9.24014 25.226 10.2205C25.226 11.2255 25.5132 12.0342 26.0876 12.647C26.662 13.2598 27.38 13.5784 28.2416 13.5784C29.0793 13.5784 29.7973 13.2598 30.3717 12.647C30.9461 12.0098 31.2333 11.2255 31.2333 10.2451C31.2333 9.28917 30.9461 8.48034 30.3717 7.86761C29.8212 7.25487 29.1032 6.93624 28.2416 6.93624Z" fill="#007BC7"/>
<path d="M33.8185 4.63239H36.6427L39.419 11.2745L42.1953 4.63239H44.9955L40.3045 15.8824H38.5095L33.8185 4.63239Z" fill="#007BC7"/>
<path d="M47.6522 0C48.1307 0 48.5374 0.171568 48.8964 0.539215C49.2317 0.906863 49.4229 1.32353 49.4229 1.83823C49.4229 2.35294 49.2555 2.7696 48.9207 3.13725C48.5854 3.5049 48.1787 3.67647 47.6998 3.67647C47.2213 3.67647 46.7904 3.5049 46.4554 3.13725C46.1203 2.7696 45.9288 2.32843 45.9288 1.81373C45.9288 1.32353 46.0963 0.882351 46.4554 0.539215C46.7665 0.171568 47.1734 0 47.6522 0ZM46.2878 4.63235H49.0401V15.8823H46.2878V4.63235Z" fill="#007BC7"/>
<path d="M61.8445 11.0783H52.9892C53.109 11.8871 53.4676 12.5244 54.0184 12.99C54.5687 13.4558 55.2868 13.7008 56.1481 13.7008C57.1774 13.7008 58.063 13.3332 58.8049 12.5979L61.1264 13.7254C60.5523 14.5587 59.8579 15.1959 59.0441 15.5881C58.2304 16.0048 57.2734 16.2008 56.1724 16.2008C54.4493 16.2008 53.0372 15.6371 51.9599 14.5342C50.8832 13.4312 50.3324 12.0342 50.3324 10.343C50.3324 8.62731 50.8832 7.20575 51.9599 6.0538C53.0372 4.92634 54.4012 4.36261 56.0288 4.36261C57.7757 4.36261 59.164 4.92634 60.265 6.0538C61.3418 7.18121 61.8926 8.67634 61.8926 10.5391L61.8445 11.0783ZM59.0922 8.8479C58.9005 8.21063 58.5419 7.72043 58.0154 7.32829C57.4646 6.93614 56.8425 6.74004 56.1481 6.74004C55.3824 6.74004 54.7123 6.96063 54.114 7.4018C53.7549 7.67141 53.4201 8.1616 53.109 8.87243H59.0922V8.8479Z" fill="#007BC7"/>
<path d="M61.7969 4.63239H64.5017L66.7033 11.0294L69.0727 4.63239H70.7241L73.0698 10.9559L75.2718 4.63239H77.9999L74.0029 15.8824H72.256L69.9103 9.4608L67.4932 15.8824H65.7701L61.7969 4.63239Z" fill="#007BC7"/>
<path d="M1.50782 6.74032H0V4.24031H1.50782V1.54423L4.5474 0.392273V4.24031H8.11352V6.74032H4.5474V10.8334C4.5474 11.7893 4.69101 12.4511 4.97821 12.8432C5.26543 13.2354 5.76801 13.4314 6.50996 13.4805C7.25191 13.5295 7.63487 13.505 8.54433 13.2844V15.8579C7.85027 16.1031 6.84502 16.152 5.52868 16.054C4.23627 15.956 3.23105 15.6864 2.53697 14.9266C1.84289 14.1912 1.48389 13.1129 1.48389 11.7403V6.74032H1.50782Z" fill="#007BC7"/>
</svg>
