<svg width="153" height="39" viewBox="0 0 153 39" fill="none" xmlns="http://www.w3.org/2000/svg">
<path d="M15.7542 30.2534C11.9924 29.8295 9.0062 26.7854 8.61838 23.0477C8.38569 20.8127 9.08375 18.6935 10.4411 17.1136C10.5962 16.9209 10.5574 16.6513 10.3635 16.4971L4.70145 11.3722C4.50754 11.218 4.23607 11.218 4.08094 11.4107C1.28868 14.609 -0.301362 18.8476 0.0476709 23.4715C0.668175 31.8332 7.61006 38.4993 16.0644 38.8462C25.4496 39.2315 33.167 31.8717 33.4386 22.7395C33.4386 22.4697 33.2446 22.277 32.9731 22.277H25.2556C25.0229 22.277 24.7903 22.4697 24.7903 22.7009C24.5576 27.2093 20.5243 30.7928 15.7542 30.2534Z" fill="#FB4300"/>
<path d="M25.5659 8.71355L21.3388 15.1485C21.2224 15.3412 21.2612 15.6109 21.4164 15.7651C22.6574 16.6899 23.6656 17.9614 24.2086 19.4257C24.2862 19.6569 24.5189 19.734 24.7516 19.6954L32.0813 17.345C32.3527 17.2679 32.4691 16.9981 32.3527 16.7669C31.1893 13.4531 28.94 10.6017 26.1089 8.63649C25.9926 8.48236 25.7211 8.52089 25.5659 8.71355Z" fill="#FB4300"/>
<path d="M14.6683 2.39408L16.0644 9.0988C16.1032 9.33 16.2971 9.44559 16.5298 9.44559C17.9259 9.44559 19.3221 9.59972 20.6019 10.0236C20.8345 10.1007 21.0672 9.98501 21.1448 9.79235L24.3636 3.7042C24.48 3.47299 24.4024 3.20327 24.1698 3.08767C21.3387 1.73902 18.1587 1.27662 15.0561 1.77755C14.7846 1.93168 14.6295 2.12435 14.6683 2.39408Z" fill="#FB4300"/>
<path d="M3.61559 3.8582L7.64886 7.94268C7.80399 8.09681 8.03668 8.13535 8.23059 8.01975C9.20012 7.40322 10.286 6.90229 11.3331 6.59403C11.5658 6.51697 11.6821 6.3243 11.6433 6.13164L11.1392 0.428771C11.1004 0.159041 10.8677 -0.0336227 10.6351 0.00490964C8.03668 0.351706 5.55466 1.5077 3.65436 3.20314C3.42168 3.35727 3.42168 3.66553 3.61559 3.8582Z" fill="#FB4300"/>
<path d="M94.4418 9.71509H92.1149V18.6161H94.4418V9.71509Z" fill="black"/>
<path d="M93.2784 8.482C94.0494 8.482 94.6745 7.86094 94.6745 7.09483C94.6745 6.32871 94.0494 5.70764 93.2784 5.70764C92.5073 5.70764 91.8823 6.32871 91.8823 7.09483C91.8823 7.86094 92.5073 8.482 93.2784 8.482Z" fill="black"/>
<path d="M77.921 18.8474C78.7354 18.8474 79.4334 18.5006 80.0539 17.9611V18.6161H82.3808V12.6435V9.71509H80.0539V14.5702C80.0539 15.6106 79.4722 16.5353 78.3088 16.5353C77.1453 16.5353 76.5636 15.9959 76.5636 14.9556V9.71509H74.2368V14.9556C74.198 17.2675 75.4778 18.8474 77.921 18.8474Z" fill="black"/>
<path d="M55.4664 18.2692C56.2421 18.6546 57.1728 18.8472 58.1812 18.8472C59.81 18.8472 61.051 18.3463 61.9042 17.383L60.508 15.8802C60.1978 16.1885 59.8488 16.4196 59.4998 16.5353C59.1507 16.6894 58.7241 16.7279 58.2587 16.7279C57.5607 16.7279 57.0177 16.5738 56.5523 16.2269C56.0869 15.9187 55.8155 15.4563 55.6604 14.9169H62.5635C62.6023 14.493 62.6023 14.2618 62.6023 14.2232C62.6023 13.2985 62.4083 12.4508 61.9818 11.7571C61.5551 11.0636 61.0122 10.4856 60.2753 10.1387C59.5385 9.75342 58.7629 9.56079 57.8709 9.56079C56.9789 9.56079 56.1257 9.75342 55.3889 10.1387C54.6521 10.5241 54.0704 11.1022 53.6437 11.7957C53.2171 12.4893 53.0232 13.2985 53.0232 14.1847C53.0232 15.071 53.2171 15.8802 53.6825 16.5738C54.0704 17.3059 54.6909 17.8839 55.4664 18.2692ZM56.3584 12.0269C56.7462 11.6801 57.2504 11.526 57.8709 11.526C58.4526 11.526 58.9568 11.6801 59.3446 12.0269C59.7324 12.3737 60.0039 12.8361 60.0815 13.3755H55.6216C55.6992 12.8746 55.9319 12.3737 56.3584 12.0269Z" fill="black"/>
<path d="M106.27 17.8455L104.719 21.6602H107.201L112.049 9.71509H109.567L107.511 14.7629L105.456 9.71509H102.935L106.27 17.8455Z" fill="black"/>
<path d="M128.647 26.0144C127.833 26.0144 127.135 26.3612 126.514 26.9006V26.2456H124.187V35.1467H126.514V30.2916C126.514 29.2512 127.096 28.3263 128.259 28.3263C129.423 28.3263 130.004 28.8658 130.004 29.9062V35.1467H132.332V29.9062C132.332 27.5943 131.09 26.0144 128.647 26.0144Z" fill="black"/>
<path d="M121.744 26.2456H119.417V35.1467H121.744V26.2456Z" fill="black"/>
<path d="M120.58 25.0514C121.352 25.0514 121.977 24.4303 121.977 23.6642C121.977 22.8981 121.352 22.277 120.58 22.277C119.809 22.277 119.185 22.8981 119.185 23.6642C119.185 24.4303 119.809 25.0514 120.58 25.0514Z" fill="black"/>
<path d="M113.406 26.0146C112.592 26.0146 111.894 26.3613 111.273 26.9008V22.9319H108.946V32.2183V35.1469H111.273V30.2917C111.273 29.2513 111.855 28.3265 113.018 28.3265C114.182 28.3265 114.763 28.866 114.763 29.9064V35.1469H117.09V29.9064C117.129 27.5944 115.849 26.0146 113.406 26.0146Z" fill="black"/>
<path d="M97.9322 25.2434H101.461V35.1464H103.789V25.2434H107.279V22.9314H97.9322V25.2434Z" fill="black"/>
<path d="M149.047 29.56C148.154 29.4443 147.533 29.059 147.533 28.5196C147.533 28.0186 148.076 27.6333 148.891 27.6333C149.59 27.6333 150.248 28.2114 150.248 28.7123H152.576C152.576 27.0168 150.947 25.7067 148.891 25.7067C146.835 25.7067 145.207 27.0168 145.207 28.7123C145.207 30.3307 146.526 31.2555 148.736 31.5637C149.938 31.7178 150.52 32.1802 150.52 32.8353C150.52 33.4518 149.821 33.7215 149.007 33.7215C148.309 33.7215 147.495 33.1435 147.495 32.527H145.168C145.168 34.261 146.835 35.6482 149.007 35.6482C151.14 35.6482 152.847 34.261 152.847 32.527C152.847 30.9471 151.335 29.8682 149.047 29.56Z" fill="black"/>
<path d="M140.98 27.0548C140.359 26.3997 139.467 26.0144 138.342 26.0144C135.821 26.0144 134.154 27.9796 134.154 30.3686C134.154 32.7577 135.821 34.7228 138.342 34.7228C139.467 34.7228 140.359 34.3375 140.98 33.6824V34.5687C140.98 36.0329 139.855 36.688 138.769 36.688C137.024 36.688 136.559 35.4164 136.559 35.4164L134.348 36.2642C134.852 37.844 136.597 38.9999 138.73 38.9999C141.368 38.9999 143.268 37.1504 143.268 34.5687V26.2456H140.94V27.0548H140.98ZM138.73 32.8348C137.489 32.8348 136.481 31.7944 136.481 30.4071C136.481 29.02 137.489 27.9796 138.73 27.9796C139.971 27.9796 140.98 29.097 140.98 30.4071C140.98 31.7173 139.971 32.8348 138.73 32.8348Z" fill="black"/>
<path d="M47.0509 18.8086C44.4137 18.8086 42.3584 17.1517 42.3584 15.0324H44.6852C44.6852 15.7259 45.6547 16.4966 47.0509 16.4966C48.4471 16.4966 49.4166 15.7259 49.4166 15.0324C49.4166 14.3773 48.2531 13.7607 46.7018 13.5681C43.9484 13.2213 42.3196 11.8727 42.3196 9.94599C42.3196 7.90378 44.2974 6.2854 46.857 6.2854C49.4166 6.2854 51.3944 7.90378 51.3944 9.94599H49.0676C49.0676 9.3295 48.1755 8.59737 46.857 8.59737C45.5384 8.59737 44.6464 9.29097 44.6464 9.94599C44.6464 10.7166 45.8487 11.1406 47.0121 11.2947C49.8819 11.68 51.7434 13.1443 51.7434 15.0709C51.7434 17.1517 49.6881 18.8086 47.0509 18.8086Z" fill="black"/>
<path d="M68.3419 18.8473C70.1646 18.8473 71.7547 17.7298 72.4528 16.1115L70.281 15.2637C69.8932 15.9959 69.1951 16.5353 68.3419 16.5353C67.1397 16.5353 66.1314 15.495 66.1314 14.1848C66.1314 12.8747 67.1009 11.8343 68.3419 11.8343C69.1564 11.8343 69.8544 12.2967 70.2422 12.9903L72.414 12.1426C71.6772 10.6013 70.1258 9.52234 68.3419 9.52234C65.8599 9.52234 63.8045 11.6032 63.8045 14.1848C63.8045 16.7665 65.8211 18.8473 68.3419 18.8473Z" fill="black"/>
<path d="M87.4613 14.3776C87.4613 13.0674 88.4308 12.027 89.6718 12.027C90.1372 12.027 90.3311 12.027 90.3311 12.027V9.71509H89.6718C88.8574 9.71509 88.1205 10.1004 87.4613 10.6784V9.71509H85.1343V18.6161H87.4613V14.3776Z" fill="black"/>
<path d="M97.5832 11.6415V14.9554C97.5832 17.5371 99.4837 18.8472 101.539 18.8472C101.965 18.8472 102.353 18.8087 102.703 18.6931L101.849 16.5353C101.849 16.5353 101.655 16.5738 101.539 16.5738C100.647 16.5738 99.8716 16.1499 99.8716 14.9554V11.6415H101.849V9.71492H99.9099V7.86536H97.5832V9.71492H96.381V11.6415H97.5832Z" fill="black"/>
<path d="M89.5553 34.3761L88.0041 38.1908H90.4861L95.3337 26.2456H92.8518L90.7963 31.2935L88.7409 26.2456H86.2201L89.5553 34.3761Z" fill="black"/>
<path d="M59.1895 34.1063V35.1467H61.5939V30.0603C61.5939 28.7117 61.3225 27.7099 60.5856 27.0162C59.81 26.3226 58.7241 26.0144 57.3279 26.0144C56.5911 26.0144 55.8931 26.0915 55.195 26.2842C54.4969 26.4768 53.9152 26.7466 53.4111 27.0933L54.3806 28.9429C54.6909 28.7117 55.1174 28.4805 55.5828 28.3263C56.0481 28.1723 56.5524 28.0952 57.0177 28.0952C57.7158 28.0952 58.2587 28.2493 58.5689 28.5576C58.918 28.8658 59.0731 29.3282 59.0731 29.8676H56.979C55.6604 29.8676 54.6521 30.0989 53.9928 30.5998C53.3335 31.0622 53.0232 31.7558 53.0232 32.6035C53.0232 33.1044 53.1396 33.6054 53.4111 33.9907C53.6825 34.3761 54.1091 34.7614 54.5745 34.954C55.0786 35.1852 55.6992 35.3009 56.3972 35.3009C57.7546 35.3779 58.6853 34.9925 59.1895 34.1063ZM55.5828 32.4879C55.5828 31.7558 56.1645 31.409 57.2116 31.409H59.1507C59.1507 31.409 59.1507 31.987 59.0343 32.3338C58.918 32.6806 58.6465 33.0659 58.2587 33.2586C57.9097 33.4512 57.4831 33.5668 57.0565 33.5668C56.5911 33.5668 56.2033 33.4898 55.9706 33.2971C55.6992 33.1044 55.5828 32.8733 55.5828 32.4879Z" fill="black"/>
<path d="M80.9846 28.1725V31.4863C80.9846 34.068 82.8849 35.3782 84.9404 35.3782C85.3669 35.3782 85.7548 35.3396 86.1038 35.224L85.2506 33.0662C85.2506 33.0662 85.0567 33.1047 84.9404 33.1047C84.0484 33.1047 83.2728 32.6809 83.2728 31.4863V28.1725H85.2506V26.2459H83.3116V24.3962H80.9846V26.2459H79.7824V28.1725H80.9846Z" fill="black"/>
<path d="M47.0509 35.339C44.4137 35.339 42.3584 33.6822 42.3584 31.5629H44.6852C44.6852 32.2565 45.6547 33.0271 47.0509 33.0271C48.4471 33.0271 49.4166 32.2565 49.4166 31.5629C49.4166 30.9078 48.2531 30.2912 46.7018 30.0986C43.9484 29.7518 42.3196 28.4031 42.3196 26.4765C42.3196 24.4343 44.2974 22.8159 46.857 22.8159C49.4166 22.8159 51.3944 24.4343 51.3944 26.4765H49.0676C49.0676 25.86 48.1755 25.1279 46.857 25.1279C45.5384 25.1279 44.6464 25.8214 44.6464 26.4765C44.6464 27.2471 45.8487 27.6711 47.0121 27.8251C49.8819 28.2105 51.7434 29.6748 51.7434 31.6014C51.7434 33.6822 49.6881 35.339 47.0509 35.339Z" fill="black"/>
<path d="M66.5192 35.1467V28.1723H68.4195V26.2457H66.5192C66.5192 24.7429 67.2948 24.396 68.4195 24.5117V22.4309C65.5496 22.4309 64.1923 23.818 64.1923 26.2457H62.9513V28.1723H64.1923V35.1467H66.5192Z" fill="black"/>
<path d="M71.8323 34.7612C72.608 35.1466 73.5387 35.3392 74.547 35.3392C76.1758 35.3392 77.4169 34.8383 78.2701 33.875L76.8739 32.3722C76.5636 32.6804 76.2146 32.9117 75.8655 33.0273C75.5165 33.1813 75.09 33.2199 74.6246 33.2199C73.9265 33.2199 73.3836 33.0658 72.9182 32.719C72.4528 32.4107 72.1814 31.9484 72.0262 31.4089H78.9293C78.9681 30.985 78.9681 30.7538 78.9681 30.7153C78.9681 29.7905 78.7742 28.9428 78.3476 28.2492C77.921 27.5556 77.3781 26.9776 76.6412 26.6308C75.9043 26.2455 75.1288 26.0529 74.2367 26.0529C73.3448 26.0529 72.4916 26.2455 71.7547 26.6308C71.0179 27.0162 70.4361 27.5942 70.0096 28.2877C69.583 28.9813 69.3891 29.7905 69.3891 30.6767C69.3891 31.563 69.583 32.3722 70.0484 33.0658C70.4361 33.7979 71.0567 34.3759 71.8323 34.7612ZM72.7243 28.5575C73.1121 28.2106 73.6162 28.0566 74.2367 28.0566C74.8185 28.0566 75.3226 28.2106 75.7105 28.5575C76.0983 28.9043 76.3698 29.3666 76.4474 29.9061H71.9875C72.065 29.3666 72.2977 28.9043 72.7243 28.5575Z" fill="black"/>
<path d="M120.309 10.6787C119.573 9.90803 119.766 8.94469 120.348 8.52083C120.968 8.0199 121.783 8.17403 122.287 8.7135C122.481 8.90616 122.675 9.13736 122.946 9.44562L125.273 8.52083C125.196 8.40524 124.304 7.32631 123.994 7.01805C123.295 6.32446 122.365 5.90059 121.356 5.86206H121.278C120.542 5.86206 119.805 6.05473 119.223 6.44006C117.517 7.59605 117.09 9.52269 117.827 11.1796C117.556 11.3722 117.246 11.642 116.858 11.9502C115.268 13.453 115.113 15.9576 116.587 17.5375C117.323 18.3468 118.409 18.7706 119.456 18.7706C120.464 18.7706 121.434 18.4237 122.209 17.6531C122.404 17.4604 122.597 17.3064 122.752 17.1522C123.14 17.6146 123.606 18.1541 123.954 18.5779H126.902C126.98 18.5779 127.018 18.5008 126.98 18.4237C126.087 17.3834 120.775 11.1796 120.309 10.6787ZM120.658 16.1118C119.999 16.6898 119.03 16.7284 118.447 16.1503C118.099 15.8036 117.944 15.3797 118.021 14.8403C118.06 14.4934 118.254 14.1466 118.525 13.8384C118.797 13.5686 119.107 13.3375 119.301 13.1833C119.766 13.7613 120.503 14.609 121.278 15.4953C121.085 15.6494 120.891 15.8421 120.658 16.1118Z" fill="black"/>
</svg>
